<?xml version="1.0" encoding="utf-8"?>
<!-- Generator: Adobe Illustrator 27.5.0, SVG Export Plug-In . SVG Version: 6.00 Build 0)  -->
<svg version="1.1" id="Capa_1" xmlns="http://www.w3.org/2000/svg" xmlns:xlink="http://www.w3.org/1999/xlink" x="0px" y="0px"
	 viewBox="0 0 2122 2122" style="enable-background:new 0 0 2122 2122;" xml:space="preserve">
<path style="fill:#6D4626;" d="M855.981,1110.841c-0.022-0.712-0.043-1.427-0.064-2.126c-0.047-1.557-0.095-3.086-0.141-4.572
	c-0.01-0.288-0.018-0.563-0.027-0.848c-15.718-13.773-27.409-26.147-32.296-35.54c-13.817-26.559-24.39-62.377-32.396-102.822
	c-8.358,3.792-19.536,6.042-30.643,4.51c-0.135,20.913,4.796,57.83,36.964,84.503c0,0-7.075,31.694,21.715,53.933
	c10.443,8.066,24.124,16.285,37.518,25.037c-0.162-6.046-0.323-11.729-0.481-17.085
	C856.08,1114.123,856.031,1112.477,855.981,1110.841z"/>
<path style="fill:#6D4626;" d="M1357.403,967.257c-7.259,34.724-16.703,66.393-28.795,92.136c-1.331,2.867-2.682,5.678-4.078,8.362
	c-2.8,5.382-8.003,11.819-15.024,18.985c-7.021,7.166-15.86,15.062-25.932,23.361c-2.518,2.075-5.113,4.175-7.776,6.295
	c-3.279,2.611-6.69,5.258-10.158,7.921c-0.041,4.268-0.067,8.451-0.085,12.579c-0.002,0.518-0.008,1.054-0.01,1.57
	c-0.007,2.232-0.002,4.381-0.004,6.571c17.987-13.485,39.854-25.482,54.97-37.158c28.791-22.239,21.715-53.933,21.715-53.933
	c31.625-26.224,36.923-62.344,36.964-83.428C1371.429,970.877,1363.844,969.539,1357.403,967.257z"/>
<path style="fill:#5B4743;" d="M373.362,1970.763c2.526-10.104-111.143-55.572-131.913-95.624
	c-20.77-40.052-9.542-121.609,0-151.044c9.542-29.435,23.296,47.116,38.452,86.497c15.156,39.38,113.669,114.704,113.669,114.704
	s-15.156-95.988-25.26-114.704c-10.104-18.717,7.578-59.588,27.786-107.184c14.458-34.052,8.237-64.817,3.521-79.62
	c-3.924-5.902-6.363-9.327-6.363-9.327s1.826,1.893,4.932,5.122c-1.2-3.252-2.09-5.122-2.09-5.122s156.61,161.802,164.188,196.13
	c7.578,34.329,12.63,132.386,12.63,132.386l76.271-37.89l103.481-73.253c0,0,60.216,37.89,107.82,78.305
	c35.275,29.949,160.876,78.935,223.575,102.302h444.82c14.242-29.773,32.14-66.738,39.268-79.568
	c12.63-22.734,20.208-204.71,5.052-188.239c-15.156,16.472-187.377,198.342-227.566,221.076
	c-40.188,22.733-96.341,37.889-101.102,30.311c-4.761-7.578,21.143-73.253,71.34-93.461
	c50.198-20.208,285.113-206.536,323.003-252.3c37.89-45.765-10.104-150.334-22.734-152.359
	c-12.63-2.023-117.718-41.5-122.013-60.913c0.005,0.002,0.009,0.004,0.014,0.005c-36.108-13.978-78.046-31.517-90.036-36.629
	c-17.771-7.578-15.226-18.337-32.679-29.839c-16.532-10.893-22.511-7.735-39.785-12.787c-17.273-5.052-25.733-19.735-32.198-24.786
	c-3.071-2.4-13.498-4.536-23.605-6.124c0.329,2.158,0.636,4.054,0.92,5.75c6.564,1.522,15.747,3.301,19.368,6.199
	c5.683,4.55,3.789,8.339,10.42,14.969c6.63,6.631,17.756,10.412,18.528,24.628v0c1.049,2.072,1.047,11.578,0.333,25.333
	c-0.203,3.93-0.465,8.207-0.777,12.757c-0.468,6.824-1.049,14.263-1.715,22.063c-0.444,5.201-0.927,10.563-1.44,16.011
	c-0.769,8.174-1.607,16.543-2.486,24.857c-0.586,5.543-1.19,11.062-1.806,16.481c-0.307,2.71-0.617,5.395-0.929,8.047
	c-0.935,7.953-1.885,15.602-2.823,22.695c-0.625,4.728-1.245,9.209-1.852,13.369c-0.607,4.16-1.199,7.998-1.772,11.441
	c-1.43,8.607-2.728,14.74-3.769,17.241c-1.249,3-3.527,8.909-6.481,16.641c-0.849,2.222-1.763,4.62-2.715,7.117
	c-2.573,6.751-5.487,14.402-8.587,22.47c-1.482,3.858-3.002,7.801-4.548,11.788c-0.963,2.483-1.931,4.975-2.908,7.474
	c-4.221,10.804-8.529,21.626-12.568,31.383c-2.02,4.879-3.972,9.491-5.813,13.701c-0.614,1.403-1.216,2.762-1.803,4.072
	c-1.175,2.619-2.294,5.038-3.344,7.219c-1.05,2.181-2.031,4.124-2.929,5.787c-0.899,1.663-1.715,3.048-2.437,4.114
	c-0.001,0.002-0.003,0.004-0.004,0.006c-0.324,0.476-0.811,1.012-1.377,1.574c-0.065,0.064-0.09,0.115-0.158,0.181
	c-0.109,0.105-0.279,0.231-0.396,0.338c-0.477,0.441-1.017,0.904-1.621,1.388c-0.231,0.186-0.446,0.366-0.695,0.558
	c-0.855,0.658-1.791,1.346-2.848,2.074c-0.197,0.135-0.428,0.283-0.632,0.421c-0.906,0.614-1.876,1.25-2.911,1.909
	c-0.192,0.122-0.344,0.23-0.54,0.354c-0.255,0.161-0.563,0.34-0.826,0.503c-0.92,0.572-1.885,1.16-2.889,1.76
	c-0.484,0.289-0.948,0.572-1.451,0.869c-1.411,0.83-2.886,1.682-4.437,2.558c-0.633,0.359-1.31,0.731-1.965,1.097
	c-1.025,0.571-2.064,1.147-3.14,1.736c-0.843,0.46-1.698,0.925-2.57,1.395c-0.985,0.531-1.998,1.071-3.019,1.613
	c-0.679,0.361-1.314,0.707-2.008,1.073c-0.301,0.159-0.629,0.325-0.932,0.484c-1.608,0.844-3.251,1.698-4.932,2.563
	c-1.235,0.637-2.506,1.283-3.777,1.931c-0.766,0.39-1.531,0.779-2.309,1.172c-1.344,0.679-2.696,1.361-4.073,2.05
	c-0.605,0.303-1.221,0.608-1.832,0.912c-3.806,1.896-7.687,3.813-11.685,5.756c-5.31,2.582-10.76,5.195-16.268,7.806
	c-49.573,23.502-103.88,46.894-103.88,46.894h0l0,0c0,0-14.298-5.774-35.007-14.312c-7.334-3.024-15.465-6.392-24.074-9.982
	c-4.481-1.869-9.071-3.79-13.754-5.758c-48.4-20.338-104.988-44.964-115.881-53.349c-1.846-1.421-3.989-3.575-6.368-6.348
	c-4.446-5.183-9.728-12.563-15.435-21.343c-1.42-2.185-2.857-4.425-4.325-6.776c-1.052-1.685-2.115-3.411-3.187-5.172
	c-7.503-12.325-15.422-26.396-22.997-40.784c-2.164-4.111-4.3-8.248-6.391-12.377c-2.09-4.129-4.135-8.251-6.115-12.332
	c-1.981-4.082-3.897-8.122-5.733-12.089c-3.671-7.933-7.016-15.57-9.893-22.645c-2.877-7.074-5.286-13.587-7.085-19.271
	c-0.543-1.717-0.998-3.588-1.412-5.531c-0.119-0.56-0.223-1.145-0.332-1.723c-0.285-1.513-0.537-3.082-0.754-4.71
	c-0.078-0.587-0.163-1.161-0.232-1.762c-0.519-4.474-0.806-9.324-0.892-14.463c-0.009-0.536-0.01-1.083-0.014-1.625
	c-0.019-2.237-0.005-4.519,0.045-6.849c0.01-0.432,0.014-0.857,0.026-1.292c0.152-5.726,0.497-11.693,0.998-17.807
	c0.014-0.171,0.029-0.343,0.043-0.514c0.255-3.068,0.546-6.165,0.873-9.287c0-0.006,0.001-0.013,0.001-0.019v0
	c4.113-39.297,13.454-81.772,17.682-99.803l0,0c0,0,4.99-41.689,13.515-44.718c6.617-2.35,28.015-6.289,37.287-7.94
	c-0.002-2.212-0.002-4.444-0.006-6.637c-10.569,0.501-33.891,2.03-38.857,5.911c-6.465,5.052-15.88,19.892-33.154,24.944
	c-17.273,5.052-20.885,4.578-37.416,15.471c-11.036,7.273-14.084,14.246-19.321,20.309l0,0c0,0,4.008,74.731,7.16,99.826
	c3.152,25.096,49.894,174.456,84.143,217.838c34.251,43.382,220.873,141.015,252.938,128.385
	c32.066-12.63,182.643-85.883,214.734-133.479c32.091-47.596,68.654-257.629,68.654-257.629s-22.439,231.972-39.928,277.801
	c-17.489,45.829-207.323,158.775-258.066,151.197c-50.742-7.578-209.433-75.779-258.359-113.669
	c-48.926-37.89-105.326-191.856-105.326-191.856s-110.976-80.949-143.813-78.587c-32.837,2.362-156.61,65.839-229.864,78.587
	c-36.173,6.295-63.091,26.668-81.394,45.415c2.629-8.056,5.871-15.992,9.995-24.025c-9.932,19.321-14.734,38.083-18.273,59.324
	c-5.052,30.312-23.997,107.354-29.049,117.458c-5.052,10.104-31.72,214.708-35.364,245.02H334.22
	C353.367,1993.922,372.107,1975.787,373.362,1970.763z"/>
<path style="fill:#5B4743;" d="M1742.441,1983.393c-12.63,0-17.682-85.217,17.682-127.228
	c35.364-42.012,128.906-104.649,123.813-122.587c-5.092-17.938-48.034-131.886-55.612-119.117
	c-7.578,12.769-80.831,126.325-113.669,176.901c-32.838,50.576-60.624,116.251-60.624,116.251l16.267,104.828h113.355
	c30.495-60.581,102.233-205.198,100.242-221.079C1881.369,1771.211,1755.071,1983.393,1742.441,1983.393z"/>
<path style="fill:#2D2321;" d="M1276.846,1333.091c0.14,0.829,0.273,1.586,0.399,2.301c0.018,0.106,0.038,0.219,0.057,0.323
	c0.112,0.626,0.216,1.197,0.315,1.733c0.03,0.164,0.061,0.33,0.091,0.486c0.088,0.47,0.172,0.912,0.249,1.306
	c0.026,0.137,0.052,0.266,0.077,0.392c0.072,0.367,0.141,0.715,0.201,1.007c0.021,0.101,0.039,0.188,0.058,0.281
	c0.053,0.258,0.105,0.507,0.145,0.696c0.033,0.154,0.061,0.283,0.084,0.389c0.01,0.048,0.027,0.124,0.035,0.161
	c0.031,0.138,0.049,0.217,0.049,0.217s31.91,20.307,43.099,31.729c1.598,1.631,2.774,3.081,3.374,4.266
	c-0.772-14.216-11.898-17.997-18.528-24.628c-6.631-6.63-4.737-10.42-10.42-14.969c-3.621-2.899-12.803-4.677-19.368-6.199
	c0.026,0.157,0.055,0.341,0.081,0.494C1276.844,1333.079,1276.845,1333.086,1276.846,1333.091z"/>
<path style="fill:#2D2321;" d="M859.331,1338.78c0-2.67-0.005-5.294-0.008-7.94c-9.272,1.65-30.67,5.589-37.287,7.94
	c-8.525,3.028-13.515,44.718-13.515,44.718l0,0c1.323-5.643,2.148-8.909,2.148-8.909L859.331,1338.78z"/>
<path style="fill:#513F3B;" d="M1616.142,1497.903c12.63,2.024,60.623,106.594,22.734,152.359
	c-37.89,45.764-272.805,232.093-323.003,252.3c-50.198,20.208-76.101,85.883-71.34,93.461c4.761,7.578,60.914-7.578,101.102-30.311
	c40.188-22.734,212.41-204.604,227.566-221.076c15.156-16.472,7.578,165.505-5.052,188.239
	c-7.128,12.83-25.026,49.795-39.268,79.568h76.842c0,0,28.102-126.835,33.154-137.302c5.052-10.467,0-158.705,10.104-171.732
	c10.103-13.027,83.357-88.946,83.357-88.946s-56.208,78.782-67.035,139.068c-16.955,94.408-16.952,258.317-16.952,258.317
	l-42.628,0.595h64.576l-16.267-104.828c0,0,27.786-65.675,60.624-116.251c32.838-50.576,106.091-164.132,113.669-176.901
	c7.578-12.769,50.519,101.179,55.612,119.117c5.093,17.938-88.449,80.575-123.813,122.587
	c-35.364,42.012-30.312,127.228-17.682,127.228c12.63,0,138.928-212.182,141.454-192.031
	c1.991,15.882-69.747,160.498-100.242,221.079h168.908h0.001c-1.367-11.367-5.972-47.244-11.46-88.182
	c-0.914-6.823-1.853-13.787-2.806-20.801c-0.953-7.015-1.92-14.079-2.889-21.105c-7.754-56.203-15.684-109.88-18.21-114.932
	c-5.052-10.104-23.997-87.146-29.049-117.458c-5.052-30.312-12.63-55.571-34.101-84.62c-21.471-29.049-92.198-51.783-107.354-61.886
	c-15.156-10.104-175.555-40.416-208.393-50.519c-1.217-0.375-2.523-0.793-3.873-1.233c-0.386-0.126-0.789-0.26-1.185-0.391
	c-1.029-0.34-2.089-0.694-3.185-1.067c-0.434-0.148-0.866-0.294-1.31-0.447c-1.37-0.471-2.777-0.96-4.236-1.475
	c-0.123-0.043-0.237-0.083-0.361-0.127c-1.692-0.598-3.441-1.226-5.236-1.877c-0.219-0.079-0.444-0.162-0.663-0.242
	c-1.604-0.583-3.241-1.184-4.915-1.803c-0.265-0.098-0.53-0.196-0.797-0.295c-5.821-2.16-12.014-4.516-18.396-6.986
	c-0.005-0.002-0.01-0.004-0.014-0.005C1498.424,1456.403,1603.512,1495.88,1616.142,1497.903z"/>
<path style="fill:#66514E;" d="M322.842,1569.251c73.254-12.748,197.027-76.225,229.864-78.587
	c32.838-2.362,143.813,78.587,143.813,78.587s56.4,153.966,105.326,191.856c48.926,37.89,207.617,106.091,258.359,113.669
	c50.743,7.578,240.578-105.367,258.066-151.197c17.489-45.829,39.928-277.801,39.928-277.801s-36.563,210.033-68.654,257.629
	c-32.091,47.596-182.668,120.849-214.734,133.479c-32.065,12.63-218.688-85.004-252.938-128.385
	c-34.25-43.381-80.991-192.742-84.143-217.838c-3.152-25.096-7.16-99.826-7.16-99.826l0,0h0c-0.683,0.791-1.421,1.56-2.201,2.319
	c-0.148,0.143-0.295,0.288-0.448,0.43c-0.827,0.774-1.708,1.534-2.695,2.27c-0.044,0.033-0.097,0.064-0.142,0.097
	c-0.912,0.673-1.932,1.323-3.02,1.961c-0.289,0.17-0.585,0.338-0.888,0.505c-1.212,0.667-2.498,1.322-3.964,1.947
	c-17.771,7.578-101.355,42.468-134.193,52.572c-32.838,10.104-193.237,40.416-208.393,50.519
	c-15.156,10.104-85.883,32.838-107.354,61.886c-1.482,2.005-2.885,3.99-4.238,5.962c-0.402,0.586-0.777,1.166-1.168,1.75
	c-0.943,1.407-1.868,2.809-2.749,4.203c-0.398,0.629-0.781,1.255-1.166,1.881c-0.848,1.377-1.671,2.749-2.462,4.115
	c-0.329,0.568-0.657,1.137-0.976,1.704c-0.866,1.536-1.697,3.067-2.495,4.593c-0.19,0.363-0.388,0.726-0.574,1.088
	c-4.124,8.033-7.366,15.969-9.995,24.025C259.751,1595.92,286.669,1575.546,322.842,1569.251z"/>
<path style="fill:#513F3B;" d="M752.666,1831.834l-103.481,73.253l-76.271,37.89c0,0-5.052-98.057-12.63-132.386
	c-7.578-34.328-164.188-196.13-164.188-196.13s0.89,1.87,2.09,5.122c16.598,17.256,69.914,72.85,78.425,83.824
	c10.104,13.027,5.052,161.265,10.104,171.732c5.052,10.467,33.154,137.302,33.154,137.302h546.37h17.822
	c-62.698-23.368-188.299-72.353-223.575-102.302C812.882,1869.724,752.666,1831.834,752.666,1831.834z"/>
<path style="fill:#513F3B;" d="M460.288,1753.53c-8.583-47.792-45.661-107.166-60.671-129.742
	c4.716,14.803,10.937,45.567-3.521,79.62c-20.208,47.596-37.89,88.467-27.786,107.184c10.104,18.717,25.26,114.704,25.26,114.704
	s-98.513-75.324-113.669-114.704c-15.156-39.38-28.91-115.932-38.452-86.497c-9.542,29.435-20.77,110.992,0,151.044
	c20.771,40.052,134.439,85.52,131.913,95.624c-1.255,5.023-19.995,23.159-39.142,41.678h185.649l-42.628-0.595
	C477.24,2011.847,477.243,1847.938,460.288,1753.53z"/>
<path style="fill:#2D2321;" d="M1665.302,1753.53c10.827-60.286,67.035-139.068,67.035-139.068s-73.254,75.919-83.357,88.946
	c-10.104,13.027-5.052,161.265-10.104,171.732c-5.052,10.467-33.154,137.302-33.154,137.302l42.628-0.595
	C1648.35,2011.847,1648.348,1847.938,1665.302,1753.53z"/>
<path style="fill:#2D2321;" d="M476.611,1703.407c-8.511-10.974-61.827-66.568-78.425-83.824c-3.106-3.229-4.932-5.122-4.932-5.122
	s2.439,3.425,6.363,9.327c15.01,22.576,52.088,81.95,60.671,129.742c16.955,94.408,16.952,258.317,16.952,258.317l42.628,0.595
	c0,0-28.102-126.835-33.154-137.302C481.663,1864.672,486.715,1716.435,476.611,1703.407z"/>
<path style="fill:#F1C4A6;" d="M859.331,1338.78c0,0,49.851,200.629,48.685,211.996c-1.165,11.367-65.96-199.284-65.96-199.284
	L859.331,1338.78l-48.662,35.809c0,0-0.825,3.266-2.148,8.909c-4.228,18.031-13.568,60.507-17.682,99.803
	c23.523,51.574,86.738,188.477,105.293,211.456c22.945,28.417,115.351,34.1,146.744,67.041c31.394,32.942,81.253,0,81.253,0
	s4.812-27.258,14.224-37.081c9.412-9.825,85.312-94.373,90.874-110.256c5.562-15.882,15.064-131.887,15.064-131.887
	c-26.738,15.156-90.722,170.504-105.826,193.237c-15.105,22.734-49.308,28.417-54.404,15.156
	c-5.098-13.261,109.293-185.659,102.539-200.814c-6.754-15.156-55.764-13.262-62.47-5.683c-6.706,7.578-34.973,30.311-50.137,47.362
	c-15.164,17.05-1.886-45.468-5.371-66.307c-3.485-20.839-19.248-64.412-38.106-74.686c-14.739-8.03-125.656-168.511-173.405-238.23
	c1.078,44.895,2.077,103.91,2.205,171.595c0.005,2.193,0.005,4.426,0.006,6.637C859.326,1333.485,859.331,1336.109,859.331,1338.78z
	"/>
<path style="fill:#DBA38E;" d="M1030.516,1390.838c18.857,10.273,34.621,53.847,38.106,74.686
	c3.485,20.84-9.793,83.358,5.371,66.307c15.164-17.051,43.431-39.784,50.137-47.362c6.706-7.578,55.716-9.473,62.47,5.683
	c6.754,15.156-107.637,187.554-102.539,200.814c5.096,13.262,39.3,7.578,54.404-15.156
	c15.104-22.734,79.088-178.081,105.826-193.237c0,0-9.502,116.005-15.064,131.887c-5.562,15.883-81.462,100.431-90.874,110.256
	c-9.412,9.823-14.224,37.081-14.224,37.081s-49.859,32.942-81.253,0c-31.393-32.941-123.799-38.625-146.744-67.041
	c-18.555-22.979-81.77-159.882-105.293-211.456v0c0,0.006-0.001,0.012-0.001,0.019c-0.327,3.122-0.617,6.22-0.873,9.287
	c-0.014,0.172-0.029,0.343-0.043,0.514c-0.501,6.114-0.845,12.081-0.998,17.807c-0.012,0.435-0.016,0.86-0.026,1.292
	c-0.051,2.331-0.064,4.613-0.045,6.849c0.004,0.542,0.005,1.089,0.014,1.625c0.085,5.141,0.373,9.988,0.892,14.463
	c0.069,0.601,0.154,1.175,0.232,1.762c0.217,1.627,0.469,3.196,0.754,4.71c0.109,0.578,0.212,1.162,0.332,1.723
	c0.414,1.943,0.87,3.814,1.413,5.531c1.799,5.683,4.207,12.196,7.084,19.27c2.877,7.074,6.222,14.712,9.893,22.645
	c1.836,3.966,3.752,8.007,5.733,12.089c1.98,4.081,4.025,8.203,6.115,12.332c2.09,4.129,4.227,8.266,6.391,12.377
	c7.575,14.388,15.494,28.459,22.997,40.784c1.072,1.761,2.135,3.486,3.187,5.172c1.468,2.351,2.905,4.591,4.325,6.776
	c5.707,8.78,10.989,16.16,15.435,21.343c2.379,2.773,4.522,4.927,6.368,6.348c10.893,8.385,67.481,33.011,115.881,53.349
	c4.683,1.968,9.274,3.889,13.754,5.758c8.609,3.591,16.739,6.959,24.074,9.982c20.709,8.538,35.007,14.312,35.007,14.312l0,0
	c0.002,0,54.309-23.392,103.881-46.894c5.508-2.611,10.958-5.224,16.268-7.806c3.947-1.919,7.78-3.812,11.54-5.684
	c-3.22,1.604-6.506,3.225-9.867,4.865c24.396-37.398,83.54-129.892,80.748-143.445c-3.513-17.051,31.93-100.408,31.976-117.458
	c0.046-17.05-41.724-109.88-40.625-115.563c1.098-5.683-44.673,26.523-76.055,54.94c-31.382,28.417-75.94,60.623-75.94,60.623
	s23.966-22.734,13.47-29.996c-10.495-7.263-91.833-133.467-91.833-133.467l0,0c-27.095-36.455-58.82-89.514-76.958-109.342
	c-20.724-22.656-73.741-65.897-99.207-86.301c0-0.02-0.001-0.038-0.002-0.058c0.158,5.356,0.318,11.039,0.481,17.085
	c0.167,6.22,0.334,12.78,0.5,19.69l0,0C904.86,1222.327,1015.777,1382.807,1030.516,1390.838z"/>
<path style="fill:#CA8E7B;" d="M1140.367,1436.99c-3.732-3.906,88.861-240.483,88.861-240.483s-81.341,109.88-105.097,127.482
	c-23.756,17.601-29.289,31.654-55.433,24.076c-9.042-2.621-22.074-17.259-36.4-36.533l0,0c0,0,81.337,126.204,91.833,133.467
	c10.495,7.263-13.47,29.996-13.47,29.996s44.558-32.206,75.94-60.623c31.382-28.417,77.153-60.624,76.055-54.94
	c-1.1,5.683,40.671,98.513,40.625,115.563c-0.045,17.051-35.489,100.408-31.976,117.458c2.793,13.553-56.352,106.046-80.748,143.445
	c3.361-1.639,6.646-3.261,9.867-4.865c0.048-0.024,0.097-0.048,0.145-0.072c0.611-0.304,1.227-0.61,1.832-0.912
	c0.019-0.01,0.036-0.018,0.055-0.028c1.333-0.667,2.645-1.328,3.946-1.986c0.024-0.012,0.048-0.024,0.072-0.036
	c0.778-0.393,1.543-0.783,2.309-1.172c0.035-0.018,0.069-0.036,0.105-0.053c1.224-0.624,2.45-1.247,3.64-1.861
	c0.01-0.005,0.022-0.01,0.032-0.016c1.68-0.866,3.324-1.72,4.932-2.563c0.057-0.03,0.119-0.062,0.177-0.092
	c0.935-0.491,1.828-0.969,2.736-1.451c0.009-0.005,0.018-0.01,0.027-0.014c1.021-0.542,2.034-1.082,3.019-1.613
	c0.01-0.006,0.02-0.011,0.03-0.016c0.851-0.459,1.685-0.912,2.507-1.361c0.011-0.006,0.022-0.012,0.033-0.018
	c1.076-0.589,2.115-1.165,3.14-1.736c0.022-0.012,0.044-0.025,0.066-0.037c0.627-0.35,1.275-0.707,1.882-1.049
	c0.005-0.004,0.011-0.007,0.017-0.01c1.551-0.877,3.026-1.729,4.437-2.558c0.005-0.003,0.01-0.006,0.015-0.009
	c0.49-0.288,0.941-0.563,1.412-0.845c0.008-0.005,0.016-0.009,0.024-0.014c1.004-0.601,1.969-1.188,2.889-1.76
	c0.001-0.001,0.002-0.001,0.003-0.002c0.463-0.288,0.921-0.574,1.362-0.855c0,0,0.001,0,0.001-0.001
	c1.035-0.659,2.005-1.295,2.911-1.909c0.008-0.006,0.018-0.013,0.027-0.018c0.193-0.131,0.413-0.271,0.6-0.4
	c0.001-0.001,0.003-0.002,0.005-0.003c1.057-0.729,1.993-1.416,2.848-2.074c0.001-0.001,0.003-0.002,0.005-0.003
	c0.246-0.19,0.458-0.367,0.686-0.551c0.002-0.001,0.003-0.003,0.005-0.004c0.604-0.485,1.144-0.948,1.621-1.388c0,0,0,0,0,0
	c0.189-0.175,0.385-0.351,0.553-0.518h0c0.566-0.563,1.054-1.098,1.377-1.574c0.001-0.002,0.003-0.004,0.004-0.006
	c0.721-1.066,1.538-2.45,2.437-4.114c0.898-1.663,1.879-3.606,2.929-5.787c1.05-2.181,2.169-4.601,3.344-7.219
	c0.587-1.309,1.189-2.668,1.803-4.072c1.841-4.21,3.794-8.823,5.813-13.701c4.04-9.757,8.347-20.579,12.568-31.383
	c0.976-2.498,1.945-4.99,2.908-7.474c1.546-3.987,3.066-7.93,4.548-11.788c3.099-8.068,6.014-15.719,8.587-22.47
	c0.951-2.497,1.866-4.896,2.715-7.117c2.953-7.733,5.231-13.641,6.481-16.641c1.041-2.5,2.339-8.634,3.769-17.241
	c0.572-3.443,1.165-7.281,1.772-11.441c0.607-4.16,1.227-8.641,1.852-13.369c0.938-7.092,1.888-14.74,2.823-22.695
	c0.312-2.652,0.622-5.337,0.929-8.047c0.615-5.419,1.219-10.938,1.806-16.481c0.879-8.314,1.717-16.683,2.486-24.857
	c0.513-5.448,0.996-10.811,1.44-16.011c0.667-7.801,1.247-15.24,1.715-22.063c0.312-4.55,0.574-8.827,0.777-12.757
	c0.714-13.755,0.715-23.261-0.333-25.333c-0.599-1.184-1.775-2.635-3.374-4.266c-11.188-11.423-43.099-31.729-43.099-31.729
	s-0.018-0.079-0.049-0.217c-0.008-0.037-0.024-0.113-0.035-0.161c-0.025-0.113-0.047-0.218-0.084-0.389
	c-0.04-0.188-0.092-0.438-0.145-0.696c-0.02-0.096-0.036-0.175-0.058-0.281c-0.06-0.292-0.129-0.64-0.201-1.007
	c-0.026-0.13-0.05-0.252-0.077-0.392c-0.077-0.394-0.161-0.836-0.249-1.306c-0.03-0.159-0.06-0.318-0.091-0.486
	c-0.099-0.535-0.204-1.107-0.315-1.733c-0.019-0.105-0.037-0.215-0.057-0.323c-0.126-0.715-0.259-1.472-0.399-2.301
	c-0.001-0.005-0.002-0.011-0.003-0.017c-0.026-0.153-0.055-0.337-0.081-0.494c-0.284-1.696-0.591-3.592-0.92-5.75
	c-3.047-19.988-7.759-60.057-9.568-124.86c0.028,1.005,0.049,2.07,0.078,3.063
	C1231.852,1221.876,1143.913,1440.701,1140.367,1436.99z"/>
<path style="fill:#9B6654;" d="M1265.546,1138.465c0.002-0.516,0.008-1.052,0.01-1.57c0.017-4.148,0.032-8.281,0.074-12.57
	c-2.161,1.658-4.326,3.319-6.55,4.991c-2.898,2.18-5.846,4.37-8.834,6.565c-5.977,4.389-12.114,8.798-18.341,13.185
	c-6.227,4.387-12.542,8.752-18.874,13.055c-6.332,4.303-12.678,8.543-18.967,12.681c-6.289,4.137-12.521,8.172-18.622,12.062
	c-6.102,3.89-12.072,7.636-17.838,11.198c-8.65,5.342-16.841,10.269-24.327,14.642c-12.476,7.288-22.992,13.04-30.405,16.617
	c-2.965,1.431-5.434,2.513-7.334,3.208c-0.003,0.001-0.007,0.002-0.01,0.003c-1.781,0.651-3.59,1.183-5.408,1.648
	c-0.598,0.153-1.197,0.265-1.797,0.399c-1.234,0.275-2.466,0.527-3.703,0.725c-0.698,0.111-1.389,0.203-2.085,0.291
	c-1.152,0.146-2.295,0.262-3.438,0.347c-0.703,0.053-1.401,0.106-2.099,0.137c-1.165,0.05-2.311,0.059-3.455,0.051
	c-0.63-0.004-1.264,0.012-1.886-0.008c-1.574-0.053-3.12-0.156-4.627-0.307c-0.619-0.062-1.205-0.153-1.81-0.23
	c-1.098-0.141-2.187-0.288-3.233-0.476c-0.71-0.128-1.376-0.281-2.059-0.428c-0.526-0.114-1.083-0.206-1.592-0.331
	c0.071,0.01,0.155,0.003,0.226,0.013c-2.199-0.532-4.292-1.126-6.113-1.833c-0.003-0.001-0.007-0.003-0.01-0.004l-1.13-0.456
	c-0.049-0.026-0.093-0.049-0.142-0.075c-33.698-13.693-139.773-79.94-195.416-128.7c0.008,0.28,0.017,0.565,0.026,0.848
	c0.046,1.486,0.094,3.015,0.141,4.572c0.021,0.699,0.043,1.412,0.064,2.126c0.05,1.636,0.099,3.282,0.15,4.991
	c0.001,0.02,0.001,0.039,0.002,0.058c25.466,20.404,78.484,63.645,99.207,86.301c18.138,19.828,49.863,72.887,76.958,109.342
	c14.326,19.274,27.358,33.912,36.4,36.533c26.144,7.578,31.677-6.475,55.433-24.076c23.757-17.602,105.097-127.482,105.097-127.482
	s-92.593,236.577-88.861,240.483c3.546,3.711,91.485-215.114,125.985-231.956c-0.029-0.993-0.05-2.059-0.078-3.063
	c0-0.016-0.001-0.031-0.001-0.047c-0.303-10.836-0.518-22.398-0.637-34.638c-0.01-1.007-0.021-2.005-0.029-3.021
	c-0.029-3.529-0.048-7.121-0.06-10.768c-0.004-1.195-0.005-2.406-0.007-3.614
	C1265.533,1146.128,1265.533,1142.344,1265.546,1138.465z"/>
<path style="fill:#D3977F;" d="M842.057,1351.492c0,0,64.795,210.651,65.96,199.284c1.166-11.367-48.685-211.996-48.685-211.996
	L842.057,1351.492z"/>
<path style="fill:#E2A98B;" d="M766.492,899.458c-4.892-3.735-10.962-8.107-16.336-12.75
	C752.865,891.28,757.878,895.697,766.492,899.458z"/>
<path style="fill:#E2A98B;" d="M791.057,964.933c-7.367-37.214-12.553-78.344-16.069-119.831c-0.515,0.824-1.177,1.595-2.117,2.282
	c-6.755,4.937-19.921,13.165-16.629,25.508c3.291,12.343,23.863,25.508,25.508,35.383c1.646,9.874-9.874,31.506-12.343,32.21
	c-2.469,0.703-20.571-3.231-14.811-9.081c0.478-0.486,1.073-1.016,1.712-1.564c-11.098-9.836-27.585-32.477-42.032-43.783
	c-9.328-7.3-15.498-12.863-19.834-19.649c1.369,3.852,2.333,6.483,2.333,6.483s-21.996-24.582-19.528-38.622
	c2.469-14.04,26.331-64.67,37.851-62.394c1.176,0.232,2.699,0.798,4.487,1.64c13.276,6.253,41.102,27.716,50.26,41.182
	c-0.028-0.296-0.056-0.586-0.083-0.879c-0.073-0.772-0.145-1.533-0.216-2.279c-0.04-0.421-0.079-0.834-0.119-1.245
	c-0.068-0.709-0.134-1.399-0.199-2.074c-0.033-0.345-0.066-0.692-0.099-1.026c-0.066-0.684-0.129-1.331-0.191-1.968
	c-0.029-0.294-0.058-0.602-0.086-0.885c-0.087-0.885-0.17-1.727-0.247-2.49c-1.307-13.022-8.165-16.342-17.638-37.423
	c-9.471-21.078-37.946-17.11-37.953-17.109h-0.001c-28.885,8.512-56.797,52.222-53.551,91.889
	c3.246,39.667,59.963,116.103,90.958,127.766c3.27,1.23,6.628,2.003,9.992,2.467C771.521,970.975,782.699,968.725,791.057,964.933z"
	/>
<path style="fill:#D38E71;" d="M775.167,907.452c-1.118-2.012-4.455-4.771-8.675-7.993c-8.614-3.762-13.627-8.178-16.336-12.75
	c-7.054-6.094-12.839-12.631-12.839-18.753c0-14.811,27.124-21.394,27.55-29.623c0.288-5.573-14.042-29.866-28.635-44.284
	c-6.252,10.558-25.573,46.441-17.018,73.907c0,0-20.434-36.968,10.809-79.339c-4.799-3.674-9.411-5.874-13.278-5.362
	c-17.107,2.263-32.914,46.849-31.268,55.078c1.127,5.631,5.999,19.73,8.966,28.076c4.336,6.786,10.505,12.349,19.834,19.649
	c14.447,11.306,30.934,33.947,42.032,43.783C763.366,923.79,778.939,914.242,775.167,907.452z"/>
<path style="fill:#AF674A;" d="M772.871,847.384c0,0-0.98-10.767-2.06-22.388l0,0c-0.154-1.655-0.309-3.325-0.464-4.986
	c-0.052-0.555-0.104-1.113-0.156-1.664c-0.024-0.261-0.049-0.516-0.073-0.776c-0.088-0.94-0.176-1.874-0.263-2.793
	c-0.003-0.026-0.006-0.051-0.008-0.078c-9.159-13.466-36.985-34.929-50.26-41.182c-1.788-0.842-3.311-1.408-4.487-1.64
	c-11.52-2.276-35.382,48.355-37.851,62.394c-2.469,14.04,19.528,38.622,19.528,38.622s-0.964-2.632-2.333-6.483
	c-2.966-8.346-7.839-22.446-8.966-28.076c-1.646-8.228,14.161-52.815,31.268-55.078c3.867-0.512,8.479,1.688,13.278,5.362
	c-31.243,42.371-10.809,79.339-10.809,79.339c-8.554-27.466,10.766-63.349,17.018-73.907c14.593,14.418,28.923,38.711,28.635,44.284
	c-0.427,8.228-27.55,14.811-27.55,29.623c0,6.122,5.786,12.659,12.839,18.753c5.374,4.643,11.444,9.015,16.336,12.75
	c4.221,3.223,7.557,5.981,8.675,7.993c3.772,6.791-11.801,16.339-18.859,22.389c-0.64,0.548-1.234,1.078-1.712,1.564
	c-5.76,5.85,12.342,9.784,14.811,9.081c2.469-0.704,13.989-22.336,12.343-32.21c-1.645-9.874-22.217-23.04-25.508-35.383
	C752.95,860.549,766.116,852.321,772.871,847.384c0.94-0.687,1.602-1.458,2.117-2.282c-0.355-4.19-0.693-8.383-1.014-12.576
	C773.219,841.508,772.871,847.384,772.871,847.384z"/>
<path style="fill:#E2A98B;" d="M1394.089,887.359c-5.374,4.643-11.444,9.015-16.337,12.75
	C1386.367,896.348,1391.38,891.931,1394.089,887.359z"/>
<path style="fill:#E2A98B;" d="M1424.658,774.167c1.789-0.843,3.311-1.408,4.488-1.64c11.52-2.275,35.382,48.354,37.851,62.394
	c2.469,14.04-19.528,38.622-19.528,38.622s0.964-2.632,2.333-6.483c-4.336,6.786-10.506,12.348-19.834,19.649
	c-14.447,11.306-30.933,33.947-42.031,43.783c0.639,0.548,1.233,1.078,1.712,1.564c5.76,5.85-12.343,9.784-14.811,9.081
	c-1.517-0.432-6.444-8.77-9.642-17.423c-2.267,14.873-4.847,29.459-7.792,43.544c6.44,2.283,14.025,3.62,21.789,3.261
	c4.898-0.226,9.855-1.095,14.629-2.891c30.995-11.663,87.713-88.099,90.958-127.766c3.246-39.667-24.666-83.378-53.551-91.889
	c-4.432-1.306-9.072-1.342-13.75-0.482c-2.655,10.041-7.724,24.51-13.578,39.984
	C1411.734,781.604,1419.362,776.662,1424.658,774.167z"/>
<path style="fill:#E2A98B;" d="M1388.003,873.543c2.425-9.093-4.082-15.946-10.378-20.903c-2.202,5.218-3.979,9.385-5.171,12.165
	c-1.102,11.32-2.361,22.605-3.781,33.805C1375.508,890.739,1385.761,881.951,1388.003,873.543z"/>
<path style="fill:#D38E71;" d="M1406.929,868.606c0,6.122-5.786,12.659-12.839,18.753c-2.71,4.572-7.723,8.989-16.337,12.75
	c-4.221,3.223-7.557,5.981-8.675,7.994c-3.773,6.79,11.802,16.338,18.859,22.389c11.098-9.836,27.584-32.477,42.031-43.783
	c9.328-7.3,15.497-12.863,19.834-19.649c2.967-8.347,7.84-22.446,8.966-28.076c1.645-8.228-14.162-52.815-31.268-55.078
	c-3.867-0.511-8.478,1.688-13.278,5.362c31.243,42.371,10.809,79.339,10.809,79.339c8.554-27.466-10.767-63.349-17.019-73.906
	c-4.416,4.363-8.78,9.607-12.75,14.991c-4.782,12.015-9.558,23.633-13.613,33.354C1388.21,849.66,1406.929,856.287,1406.929,868.606
	z"/>
<path style="fill:#AF674A;" d="M1388.003,873.543c-2.242,8.408-12.495,17.196-19.329,25.067c-1.069,8.433-2.215,16.817-3.478,25.102
	c3.198,8.653,8.125,16.991,9.642,17.423c2.469,0.703,20.571-3.231,14.811-9.081c-0.479-0.486-1.073-1.016-1.712-1.564
	c-7.058-6.051-22.632-15.598-18.859-22.389c1.118-2.012,4.455-4.771,8.675-7.994c4.893-3.735,10.962-8.107,16.337-12.75
	c7.053-6.094,12.839-12.631,12.839-18.753c0-12.319-18.719-18.946-25.279-25.561c-1.442,3.458-2.801,6.695-4.025,9.596
	C1383.921,857.597,1390.427,864.45,1388.003,873.543z"/>
<path style="fill:#AF674A;" d="M1425.031,868.606c0,0,20.434-36.967-10.809-79.339c4.799-3.674,9.41-5.874,13.278-5.362
	c17.106,2.263,32.914,46.85,31.268,55.078c-1.126,5.631-5.999,19.73-8.966,28.076c-1.369,3.852-2.333,6.483-2.333,6.483
	s21.996-24.583,19.528-38.622c-2.469-14.04-26.331-64.67-37.851-62.394c-1.176,0.232-2.699,0.798-4.488,1.64
	c-5.296,2.495-12.924,7.437-20.756,13.306c-2.765,7.308-5.697,14.827-8.639,22.218c3.97-5.384,8.333-10.628,12.75-14.991
	C1414.264,805.258,1433.585,841.141,1425.031,868.606z"/>
<path style="fill:#F1C4A6;" d="M1051.166,1231.995c-9.917-5.218-12.587-6.658,1.281,0.534l-0.01-0.004
	c0.003,0.001,0.006,0.003,0.01,0.004c1.82,0.707,3.914,1.302,6.113,1.833c51.077,7.453,212.232-136.048,241.317-175.531
	c30.363-41.22,52.745-145.566,62.459-177.69c2.542-8.409,4.913-15.855,7.039-22.317c-2.189-15.517-5.96-45.52-4.573-59.596
	c-0.304-21.376-10.439-61.08-25.145-84.761c-5.443-8.766-7.973-17.395-9.011-24.797c-14.808,0.271-52.969,13.471-86.293,24.549
	c33.373,12.136,52.669,32.606,63.69,50.009c0.95,0.716,1.91,1.424,2.853,2.143c-0.776-0.447-1.56-0.876-2.338-1.32
	c4.102,6.595,7.035,12.704,9.078,17.71c3.812,3.833,10.859,11.13,13.81,15.596c0,0-3.969-0.649-22.783,16.636
	c0,0-5.72,4.715-10.135,8.383c-28.863,27.925-81.329,24.766-118.783,15.137c-14.186-3.312-25.608-18.919-25.608-18.919v-0.001l0,0
	c0,0,0.013-0.098,0.015-0.118c0.012-0.114,0.073-0.544,0.196-1.229c0.031-0.17,0.04-0.264,0.081-0.465
	c0.08-0.401,0.197-0.89,0.331-1.418c0.1-0.41,0.216-0.832,0.35-1.308l0,0v-0.001c0.2-0.711,0.421-1.452,0.711-2.29
	c-1.273,1.778-2.007,2.907-2.007,2.907s7.619-29.534,32.829-50.081c-12.173,5.202-26.282,12.624-40.904,23.281
	c0,0,36.001-39.82,85.586-41.73c-15.459-3.377-30.957-5.001-43.766-3.998c-3.413,0.268-6.76,0.875-10.042,1.665
	c-8.604,5.351-15.364,13.671-23.025,20.513c3.969-6.075,8.201-12.003,13.073-17.386c-22.165,8.562-38.677,25.239-38.677,25.239
	c-0.908-10.801,1.962-21.989,6.159-32.146c-2.41,0.385-3.813,0.596-3.813,0.596s6.106-35.199,22.979-44.163
	c16.874-8.965,132.971-23.125,150.45-20.754c14.285,1.937,23.076,9.249,25.852,11.887c-1.476-12.022,0.932-20.543,0.932-20.543
	c-32.389-11.366-86.963-61.571-98.753-68.36c-11.79-6.79-97.143,3.001-125.595,4.895c-28.451,1.894-66.272-34.101-104.848-54.94
	c-38.577-20.84-77.934-20.839-103.925-20.839c-25.99,0-21.372,18.945-29.897,40.179c-8.525,21.233-25.575,23.287-49.333,41.245
	c-10.445,7.895-18.888,20.605-25.076,32.373c-9.353,41.138-1.198,91.603-8.001,112.935c-0.351,1.101-0.692,2.26-1.027,3.446
	c-0.103,0.366-0.205,0.744-0.307,1.118c-0.238,0.871-0.472,1.759-0.702,2.668c-0.101,0.399-0.202,0.796-0.302,1.202
	c-0.269,1.1-0.533,2.224-0.792,3.37c-0.043,0.192-0.088,0.375-0.131,0.567c-0.298,1.341-0.586,2.713-0.87,4.105
	c-0.08,0.396-0.159,0.799-0.238,1.199c-0.208,1.049-0.413,2.107-0.612,3.178c-0.084,0.451-0.168,0.901-0.25,1.355
	c-0.21,1.154-0.415,2.319-0.616,3.493c-0.053,0.315-0.11,0.626-0.163,0.942c-0.248,1.474-0.488,2.96-0.722,4.454
	c-0.06,0.38-0.116,0.761-0.175,1.142c-0.178,1.158-0.352,2.318-0.522,3.481c-0.067,0.459-0.134,0.918-0.199,1.377
	c-0.171,1.189-0.336,2.379-0.497,3.568c-0.047,0.348-0.096,0.697-0.143,1.044c-0.202,1.509-0.398,3.014-0.586,4.511
	c-0.04,0.319-0.078,0.636-0.118,0.954c-0.149,1.199-0.294,2.393-0.435,3.578c-0.053,0.452-0.106,0.901-0.158,1.351
	c-0.128,1.096-0.251,2.182-0.372,3.259c-0.045,0.409-0.092,0.821-0.137,1.227c-0.154,1.405-0.303,2.794-0.445,4.157
	c-0.025,0.249-0.049,0.488-0.075,0.735c-0.12,1.161-0.236,2.307-0.347,3.43c-0.039,0.398-0.077,0.79-0.116,1.183
	c-0.096,0.986-0.189,1.955-0.277,2.904c-0.032,0.351-0.066,0.707-0.098,1.052c-0.115,1.247-0.227,2.47-0.329,3.64v0
	c-0.101,1.144-0.193,2.236-0.283,3.297c0.321,4.193,0.659,8.386,1.014,12.576c3.516,41.487,8.702,82.617,16.069,119.831
	c8.006,40.445,18.58,76.263,32.396,102.822c4.887,9.392,16.578,21.767,32.296,35.54l0,0
	C911.393,1152.055,1017.467,1218.302,1051.166,1231.995z"/>
<path style="fill:#E2A98B;" d="M819.094,610.231c23.758-17.958,40.808-20.012,49.333-41.245
	c8.525-21.234,3.907-40.179,29.897-40.179c25.99,0,65.348-0.001,103.925,20.839c38.576,20.84,76.397,56.835,104.848,54.94
	c28.452-1.894,113.805-11.685,125.595-4.895c11.79,6.789,66.364,56.994,98.753,68.36c0,0-2.409,8.521-0.932,20.543
	c0.621,0.59,1.042,1.025,1.042,1.025c-0.264-0.004-0.628,0.046-0.91,0.051c1.039,7.401,3.568,16.031,9.011,24.797
	c14.705,23.681,24.84,63.385,25.145,84.761c0.194-1.972,0.42-4.169,0.654-6.455c1.142-11.185,2.544-25.699,2.204-40.23
	c-0.276-11.738-1.68-23.451-5.324-33.339c-9.077-24.629-10.815-83.358-10.815-83.358c-52.098-15.156-93.777-100.407-95.33-101.355
	c-1.554-0.947-68.542,9.473-74.62,13.262c-6.077,3.789,4.183-8.526,12.586-14.209c8.402-5.683-65.237,13.262-83.496,16.103
	c-0.595,0.092-1.275,0.145-2.019,0.167c-0.012,0-0.028,0-0.04,0c-0.736,0.021-1.545,0.007-2.415-0.036l0,0l0,0
	c-25.306-1.264-105.496-28.856-124.089-33.283c-19.892-4.736-99.46-28.417-129.772-21.787c-9.38,2.051-15.755,8.651-20.018,17.176
	l0,0c-0.221,0.442-0.409,0.913-0.618,1.365c-0.507,1.093-0.988,2.207-1.431,3.352c-0.247,0.638-0.488,1.28-0.716,1.931
	c-0.416,1.187-0.799,2.395-1.155,3.619c-0.203,0.699-0.404,1.398-0.589,2.106c-0.35,1.345-0.671,2.701-0.957,4.069
	c-0.148,0.705-0.283,1.413-0.416,2.121c-0.216,1.164-0.411,2.329-0.586,3.495c-0.089,0.589-0.191,1.177-0.27,1.765
	c-0.216,1.62-0.391,3.23-0.537,4.826c-0.06,0.654-0.106,1.298-0.156,1.945c-0.087,1.157-0.16,2.301-0.215,3.43
	c-0.027,0.56-0.061,1.128-0.081,1.679c-0.055,1.551-0.084,3.069-0.086,4.537c-0.001,0.482,0.009,0.941,0.014,1.412
	c0.011,1.126,0.034,2.223,0.073,3.278c0.016,0.44,0.029,0.884,0.049,1.309c0.064,1.355,0.143,2.66,0.244,3.861
	c0.018,0.217,0.041,0.405,0.06,0.617c0.094,1.029,0.199,1.988,0.313,2.875c0.036,0.284,0.073,0.567,0.111,0.835
	c0.14,0.983,0.288,1.903,0.445,2.655c2.842,13.635-10.714,31.833-10.714,31.833c-11.03,10.947-17.397,25.659-21.069,41.806
	C800.206,630.836,808.649,618.126,819.094,610.231z"/>
<path style="fill:#F7E1D2;" d="M1299.876,1058.832c-29.084,39.484-190.24,182.984-241.317,175.531
	c-0.071-0.01-0.156-0.003-0.226-0.013c0.509,0.125,1.066,0.218,1.592,0.331c0.681,0.147,1.352,0.301,2.059,0.428
	c1.046,0.188,2.135,0.335,3.233,0.476c0.604,0.078,1.193,0.168,1.81,0.23c1.508,0.152,3.053,0.255,4.627,0.307
	c0.62,0.02,1.258,0.005,1.886,0.008c1.144,0.008,2.29-0.001,3.455-0.051c0.696-0.03,1.397-0.084,2.099-0.137
	c1.143-0.085,2.286-0.201,3.438-0.347c0.694-0.088,1.39-0.18,2.085-0.291c1.237-0.198,2.469-0.451,3.703-0.725
	c0.6-0.134,1.2-0.246,1.797-0.399c1.819-0.464,3.627-0.997,5.408-1.648c0.003-0.001,0.007-0.002,0.01-0.003
	c1.899-0.695,4.368-1.777,7.334-3.208c7.413-3.577,17.93-9.329,30.405-16.617c7.486-4.373,15.677-9.3,24.327-14.642
	c5.766-3.562,11.737-7.308,17.838-11.198c6.101-3.891,12.333-7.925,18.622-12.062c6.29-4.138,12.636-8.378,18.967-12.681
	c6.332-4.303,12.647-8.669,18.874-13.055c6.227-4.387,12.365-8.795,18.341-13.185c2.988-2.194,5.935-4.384,8.834-6.565
	c5.796-4.36,11.393-8.68,16.719-12.921c2.664-2.12,5.258-4.22,7.776-6.295c10.072-8.299,18.91-16.195,25.932-23.361
	c7.021-7.167,12.224-13.604,15.023-18.985c1.401-2.693,2.743-5.519,4.078-8.362c12.091-25.744,21.536-57.413,28.795-92.136
	c2.945-14.085,5.525-28.671,7.792-43.544c1.263-8.285,2.409-16.669,3.478-25.102c1.419-11.199,2.679-22.485,3.781-33.805
	c-1.035,2.415-1.635,3.801-1.635,3.801s-0.611-3.875-1.445-9.782c-2.127,6.462-4.497,13.908-7.039,22.317
	C1352.62,913.266,1330.239,1017.612,1299.876,1058.832z"/>
<path style="fill:#F7E1D2;" d="M1121.094,910.16c7.405-4.011,37.028-41.452,20.982-41.554c0,0-26.537,2.107-30.24,13.036
	C1108.135,892.573,1113.689,914.172,1121.094,910.16z"/>
<path style="fill:#E2A98B;" d="M934.939,719.768c-33.691-9.543-95.218-33.131-118.183-35.321c-0.069,0.126-0.147,0.221-0.216,0.351
	c0,0,31.276,17.323,66.511,33.442c-56.497,25.419-66.929,75.404-67.85,77.381c-0.838,1.801,2.899-2.068,11.894-9.527
	c3.203-3.329,5.829-5.891,5.829-5.891c18.979-13.83,14.133-13.011,41.422-24.884c11.685-5.084,22.193-7.178,30.411-7.923
	c15.843-3.552,31.799-5.28,44.928-4.251c6.287,1.443,14.379,3.312,22.498,5.755c3.027,1.274,5.911,2.702,8.673,4.189
	c-6.096-5.771-12.61-10.875-21.061-12.849c-27.445-6.215-58.024-6.09-83.944,5.974c-13.193,5.931-26.068,12.858-38.761,20.16
	c11.518-9.069,23.746-17.279,36.848-24.141c27.918-14.92,63.046-15.294,92.715-5.325c9.036,4.182,15.491,12.14,21.232,20.287
	c12.397,7.833,20.471,15.982,20.471,15.982c0.012-0.132-0.001-0.265,0.009-0.397c21.116,36.035,33.478,71.767,35.64,115.627
	c0,0,8.122-25.96,4.94-49.911c-7.701-57.978-24.408-106.287-42.382-125.532c4.942,11.616,6.985,23.291,6.985,23.291
	S970.504,729.841,934.939,719.768z"/>
<path style="fill:#E2A98B;" d="M1188.189,740.239c-3.933,0.918-7.425,2.55-10.675,4.571c3.282-0.79,6.629-1.397,10.042-1.665
	c12.808-1.004,28.307,0.621,43.766,3.998c0.582-0.022,1.158-0.052,1.744-0.064c2.608-0.087,5.792-0.056,9.483,0.251
	c0.008,0,0.016,0,0.024,0l-0.002,0.001c8.309,0.692,19.075,2.771,31.067,7.988c27.29,11.873,22.443,11.054,41.422,24.884
	c0,0,1.054,1.03,2.574,2.559c-2.043-5.006-4.976-11.115-9.078-17.71c-11.937-6.809-24.037-13.27-36.422-18.839
	C1246.217,734.149,1215.631,734.023,1188.189,740.239z"/>
<path style="fill:#E2A98B;" d="M1135.044,741.03c-4.196,10.157-7.067,21.346-6.159,32.146c0,0,16.512-16.676,38.677-25.239
	c2.61-2.884,5.35-5.656,8.449-8.111c9.619-6.16,21.66-7.579,32.748-8.898c14.996-1.29,29.738-0.434,44.53,2.843
	c20.311,6.005,38.065,17.882,54.752,30.458c-11.021-17.403-30.317-37.873-63.69-50.009c-12.751,4.239-24.802,8.169-34.51,10.919
	C1180.561,733.432,1146.271,739.234,1135.044,741.03z"/>
<path style="fill:#E2A98B;" d="M1037.196,975.331c-5.984-0.544-17.636,5.492-19.222,10.443c0.458,0.538,0.928,1.07,1.425,1.578
	c3.156,3.327,7.042,6.149,11.229,8.381l-0.057,0.157c6.062,2.721,11.969,4.825,11.969,4.825c35.573,11.319,62.505,1.33,77.968-6.827
	c7.133-4.505,13.619-11.027,14.86-19.337c0.215-3.663-0.679-7.221-1.574-10.756c-0.713-3.212-1.943-6.232-3.029-9.409
	c-2.022-0.748-4.713-1.089-8.399-1.099c-9.686-0.026-17.034,11.356-21.042,17.368c-4.008,6.012-19.706,16.032-27.722,17.35
	C1065.585,989.324,1044.543,975.999,1037.196,975.331z"/>
<path style="fill:#2B0D11;" d="M1117.527,992.71c1.336-1.336-6.193-11.658-12.196-7.693c-9.548,6.306-24.048,18.704-24.048,18.704
	C1091.971,1004.611,1116.191,994.046,1117.527,992.71z"/>
<path style="fill:#2B0D11;" d="M1032.452,992.71c1.336,1.336,25.555,11.901,36.244,11.011c0,0-14.5-12.399-24.048-18.704
	C1038.645,981.052,1031.116,991.374,1032.452,992.71z"/>
<path style="fill:#BC7251;" d="M1019.399,987.352c-0.497-0.508-0.967-1.04-1.425-1.578c-3.857-4.526-6.234-10.059-5.102-15.864
	c0.956-6.816,3.587-12.704,5.543-19.428l-0.513-0.402c-21.747,14.552-9.543,40.76,12.502,46.264l0.167-0.455l0.057-0.157
	C1026.441,993.502,1022.555,990.679,1019.399,987.352z"/>
<path style="fill:#BC7251;" d="M1135.367,974.551c-1.241,8.31-7.726,14.832-14.86,19.337c-1.041,0.657-2.095,1.274-3.15,1.845
	l0.224,0.612c4.707-1.324,9.099-3.601,13.162-6.55c14.062-10.136,14.55-30.285-0.66-39.715l-0.514,0.402
	c0.345,1.345,0.759,2.635,1.193,3.904c1.087,3.177,2.316,6.196,3.029,9.409C1134.688,967.33,1135.582,970.887,1135.367,974.551z"/>
<path style="fill:#F7E1D2;" d="M1032.296,928.905c0,0-17.432,23.38-12.278,29.392c5.154,6.012,13.169-7.348,24.526,0
	c11.355,7.348,31.395,18.035,36.74,8.684C1086.627,957.629,1072.154,924.229,1032.296,928.905z"/>
<path style="fill:#D98879;" d="M1127.231,1071.914c-14.633,0.021-35.255,7.557-45.948,9.451c-10.693,1.895-15.83-2.21-30.787-6.341
	c-14.957-4.13-43.457-4.71-50.403,0c-2.804,1.901-3.329,4.378-2.975,6.659c5.875,3.959,12.074,8.007,17.311,11.129
	c11.054,6.591,40.827,14.472,60.973,14.485c20.146-0.013,47.099-5.999,58.154-12.591c5.179-3.087,11.914-7.305,18.532-11.515
	c-1.655,1.053-3.317,2.106-4.962,3.143C1153.963,1079.307,1141.862,1071.893,1127.231,1071.914z"/>
<path style="fill:#C67166;" d="M1073.966,1066.815c-27.945,1.563-66.569,1.205-97.179,0.727c2.243,1.608,10.799,7.715,20.272,14.1
	c0.02,0.013,0.039,0.027,0.059,0.04v0c-0.353-2.281,0.172-4.758,2.975-6.659c6.947-4.71,35.447-4.13,50.403,0
	c14.957,4.132,20.094,8.236,30.787,6.341c10.693-1.894,31.315-9.429,45.948-9.451c14.632-0.021,26.733,7.393,19.895,14.42
	c1.644-1.036,3.306-2.09,4.962-3.143c0.228-0.145,0.456-0.29,0.683-0.435c0.745-0.474,1.487-0.947,2.225-1.418
	c0.201-0.129,0.4-0.256,0.601-0.385c2.397-1.532,4.735-3.034,6.936-4.453c0.172-0.111,0.343-0.222,0.513-0.331
	c2.96-1.91,5.638-3.647,7.847-5.084c0.238-0.155,0.47-0.306,0.697-0.453c0.845-0.55,1.598-1.04,2.266-1.477
	c0.62-0.404,1.181-0.771,1.628-1.063c0.156-0.102,0.268-0.175,0.401-0.262C1141.837,1070.362,1108.003,1065.26,1073.966,1066.815z"
	/>
<path style="fill:#D98879;" d="M982.204,1064.629c38.667-4.907,79.756-0.243,118.851,0.2c22.251-0.604,45.969-1.817,68.077,0.633
	c-13.477-4.686-57.682-19.283-87.849-20.17C1042.768,1044.158,996.421,1059.535,982.204,1064.629z"/>
<path style="fill:#EAA9A0;" d="M1126.959,1055.612c0,0-37.562-12.293-48.455-3.464
	C1072.457,1057.05,1131.714,1062.659,1126.959,1055.612z"/>
<path style="fill:#FDE5DC;" d="M1234.188,843.443c23.616-1.164,46.399-7.55,61.429-23.455c-5.908-1.744-14.191-5.173-24.996-8.392
	c-1.888,6.149-5.209,12.101-10.245,17.456c-6.831,7.583-15.431,12.115-24.47,14.059c-0.379,0.093-0.792,0.121-1.177,0.204
	C1234.547,843.353,1234.371,843.406,1234.188,843.443z"/>
<path style="fill:#FDE5DC;" d="M1211.029,842.105c-12.873-3.837-24.114-12.716-29.618-25.566
	c-9.004,3.702-16.407,7.504-21.042,10.066c-3.877-3.807-6.234-7.011-6.234-7.011v0.001c0,0,11.422,15.608,25.608,18.919
	c11.026,2.362,23.423,4.207,36.104,4.873C1214.211,843.042,1212.599,842.625,1211.029,842.105z"/>
<path style="fill:#E2BFB5;" d="M1181.411,816.539c-1.752-4.089-2.947-8.564-3.398-13.423c-0.613-5.199-0.172-10.343,1.059-15.269
	c-11.658,9.711-19.658,19.911-23.176,24.812c-0.287,0.833-0.588,1.688-0.788,2.396v0.001l0,0c-0.131,0.463-0.245,0.895-0.35,1.308
	c-0.134,0.528-0.251,1.017-0.331,1.418c-0.04,0.201-0.05,0.295-0.081,0.465c-0.123,0.687-0.185,1.116-0.196,1.229
	c-0.002,0.02-0.015,0.118-0.015,0.118l0,0c0,0,2.356,3.204,6.234,7.011C1165.004,824.043,1172.407,820.242,1181.411,816.539z"/>
<path style="fill:#E2BFB5;" d="M1305.141,806.597c0.77-3.763,1.147-8.013,0.824-12.797c0,0-15.921-17.033-44.06-24.547
	c9.369,11.706,13.243,27.602,8.716,42.343c10.805,3.219,19.089,6.648,24.996,8.392
	C1299.285,816.108,1302.501,811.674,1305.141,806.597z"/>
<path style="fill:#A15C40;" d="M1233.79,843.461c0.016-0.003,0.032-0.005,0.048-0.008c0.338-0.057,0.678-0.104,1.016-0.169
	c0.625-0.136,1.246-0.281,1.861-0.443c22.764-6.112,34.676-30.482,30.323-52.123c-2.291-0.914-5.004-1.421-7.902-0.711
	c-5.568,1.365-5.356,7.497-4.951,10.301c-0.711-1.645-3.171-4.577-11.462-8.012c-1.151-0.477-2.668-0.626-4.434-0.541
	c1.596,2.338,2.688,5.065,2.938,8.089c0.767,9.304-6.154,17.468-15.458,18.235c-9.304,0.767-17.468-6.154-18.235-15.458
	c-0.01-0.129,0.015-0.251,0.007-0.38c-8.565,4.034-16.886,8.443-23.032,11.827c4.578,13.698,16.114,24.978,30.038,28.865
	c0.709,0.158,1.404,0.371,2.119,0.498C1222.354,843.707,1228.093,843.727,1233.79,843.461z"/>
<path style="fill:#5E3124;" d="M1222.991,784.386c6.281-0.517,11.981,2.513,15.298,7.37c1.766-0.085,3.282,0.064,4.434,0.541
	c8.291,3.435,10.75,6.367,11.462,8.012c-0.405-2.804-0.617-8.937,4.951-10.301c2.898-0.71,5.611-0.203,7.902,0.711
	c-1.745-8.674-6.079-16.874-13.428-23.285c-4.213-0.759-8.62-1.321-13.281-1.546c12.869,4.036,18.967,15.445,15.734,18.965
	c-4.214,4.586-7.57-1.848-14.061-1.314c-6.491,0.535-7.655-5.021-16.219-6.081c-8.565-1.06-18.57,6.123-20.418-1.156
	c-0.663-2.61,1.931-4.838,5.506-6.632c-9.396,3.114-17.875,7.77-25.205,13.045c-2.578,5.991-3.859,12.741-3.286,20.043
	c0.142,3.882,0.912,7.674,2.128,11.313c6.146-3.384,14.467-7.793,23.032-11.827C1206.993,793.099,1213.816,785.142,1222.991,784.386
	z"/>
<path style="fill:#2B0D11;" d="M1315.06,780.203c-18.979-13.83-14.132-13.011-41.422-24.884
	c-11.991-5.217-22.758-7.295-31.067-7.988l0.002-0.001c-0.008,0-0.016,0-0.024,0c-3.691-0.307-6.874-0.338-9.483-0.251
	c-0.586,0.012-1.162,0.041-1.744,0.064c-49.585,1.91-85.586,41.73-85.586,41.73c14.623-10.657,28.731-18.079,40.904-23.281
	c-25.21,20.547-32.829,50.081-32.829,50.081s0.734-1.129,2.007-2.907c0.024-0.033,0.052-0.072,0.077-0.106
	c3.517-4.901,11.517-15.101,23.176-24.812c-1.231,4.926-1.672,10.07-1.059,15.269c0.452,4.859,1.647,9.333,3.398,13.423
	c5.505,12.85,16.745,21.729,29.618,25.566c1.153,0.344,2.34,0.566,3.517,0.828c-13.923-3.887-25.46-15.167-30.038-28.865
	c-1.216-3.639-1.986-7.431-2.128-11.313c-0.574-7.302,0.707-14.052,3.286-20.043c7.33-5.275,15.809-9.931,25.205-13.045
	c6.395-3.21,15.975-5.014,15.975-5.014c5.081-0.564,9.581,0.009,13.483,1.233c4.661,0.226,9.068,0.787,13.281,1.546
	c7.349,6.411,11.683,14.611,13.428,23.285c4.353,21.641-7.558,46.011-30.323,52.123c-0.279,0.075-0.528,0.2-0.809,0.269
	c9.04-1.943,17.639-6.476,24.47-14.059c5.036-5.354,8.357-11.306,10.245-17.456c4.527-14.742,0.653-30.637-8.716-42.343
	c28.139,7.513,44.06,24.547,44.06,24.547c0.323,4.784-0.053,9.035-0.824,12.797c-2.641,5.078-5.856,9.511-9.524,13.391
	c-15.03,15.904-37.813,22.291-61.429,23.455c-0.131,0.007-0.263,0.011-0.395,0.018c0.014-0.003,0.029-0.005,0.044-0.008
	c-0.016,0.003-0.033,0.005-0.048,0.008c-5.697,0.266-11.436,0.246-17.125-0.029c-0.715-0.128-1.41-0.341-2.119-0.498
	c0.61,0.17,1.216,0.346,1.834,0.487c-0.178-0.009-0.354-0.023-0.532-0.033c-12.681-0.666-25.078-2.51-36.104-4.873
	c37.454,9.629,89.92,12.788,118.783-15.137c4.415-3.667,10.135-8.383,10.135-8.383c18.814-17.286,22.783-16.636,22.783-16.636
	c-2.951-4.466-9.998-11.763-13.81-15.596C1316.114,781.233,1315.06,780.203,1315.06,780.203z"/>
<path style="fill:#2B0D11;" d="M1222.991,784.386c-9.175,0.756-15.998,8.713-15.451,17.856c0.007,0.129-0.018,0.251-0.007,0.38
	c0.767,9.304,8.931,16.225,18.235,15.458c9.304-0.767,16.225-8.931,15.458-18.235c-0.249-3.024-1.341-5.75-2.938-8.089
	C1234.972,786.899,1229.272,783.869,1222.991,784.386z"/>
<path style="fill:#BE7E67;" d="M1219.951,839.563c3.407-1.517,5.634-6.646,9.214-6.058c3.581,0.588,3.257,3.087,8.388,3.194
	c5.131,0.107,8.829-0.021,10.616-4.054c1.787-4.033,3.169-12.977-3.262-13.86c-6.431-0.883-12.294,0.837-14.036,3.276
	c-1.742,2.44-2.577,5.158-3.396,4.872c-0.819-0.286-7.227-9.471-12.3-8.876l-3.961,1.222c0,0-0.56-7.055-2.958-7.893
	c0,0-2.822-2.24-6.479,0.534c-3.657,2.774-12.463,9.505-8.71,14.318c3.752,4.812,7.872,7.652,12.301,7.816
	c4.429,0.165,2.916,1.09,6.104,3.341C1214.659,839.646,1216.544,841.08,1219.951,839.563z"/>
<path style="fill:#DBECDB;" d="M1205.364,776.3c1.848,7.279,11.852,0.096,20.418,1.156c8.564,1.06,9.729,6.616,16.219,6.081
	c6.491-0.535,9.847,5.9,14.061,1.314c3.233-3.519-2.865-14.929-15.734-18.965c-3.902-1.224-8.401-1.798-13.483-1.233
	c0,0-9.579,1.805-15.975,5.014C1207.295,771.462,1204.701,773.69,1205.364,776.3z"/>
<path style="fill:#8E5138;" d="M1208.76,730.928c-11.089,1.319-23.13,2.738-32.748,8.898c-3.099,2.456-5.839,5.227-8.449,8.111
	c-4.872,5.383-9.104,11.311-13.073,17.386c7.662-6.842,14.422-15.162,23.025-20.513c3.25-2.022,6.742-3.653,10.675-4.571
	c27.442-6.215,58.027-6.09,83.945,5.975c12.385,5.569,24.485,12.03,36.422,18.839c0.778,0.443,1.562,0.873,2.338,1.32
	c-0.943-0.719-1.903-1.427-2.853-2.143c-16.686-12.576-34.44-24.453-54.752-30.458
	C1238.498,730.495,1223.756,729.639,1208.76,730.928z"/>
<path style="fill:#492A2E;" d="M1220.139,755.54c0,0-19.875,2.527-25.369,9.202c0,0-1.442,1.924,1.985,2.517
	c3.426,0.592,11.815-1.165,15.053-2.855C1215.047,762.715,1222.93,755.621,1220.139,755.54z"/>
<path style="fill:#FDE5DC;" d="M912.079,843.11c-9.04-1.943-17.639-6.476-24.47-14.058c-5.179-5.506-8.552-11.642-10.408-17.977
	c-12.66,3.299-21.35,6.589-26.692,6.885c14.971,17.413,38.682,24.271,63.284,25.482c-0.181-0.036-0.356-0.089-0.537-0.128
	C912.871,843.231,912.458,843.203,912.079,843.11z"/>
<path style="fill:#FDE5DC;" d="M936.954,842.106c-1.563,0.517-3.166,0.933-4.795,1.278c12.67-0.668,25.057-2.511,36.082-4.869
	c7.765-1.813,14.686-7.304,19.375-11.908c-4.649-2.57-11.987-6.361-21.038-10.078C961.075,829.383,949.832,838.268,936.954,842.106z
	"/>
<path style="fill:#E2BFB5;" d="M886.079,769.253c-28.139,7.513-44.06,24.547-44.06,24.547c-0.323,4.779,0.053,9.026,0.821,12.786
	c2.19,4.211,4.762,7.994,7.668,11.375c5.343-0.296,14.033-3.586,26.692-6.885C872.923,796.481,876.822,780.82,886.079,769.253z"/>
<path style="fill:#E2BFB5;" d="M968.913,787.847c1.231,4.926,1.671,10.07,1.059,15.269c-0.451,4.855-1.645,9.324-3.394,13.411
	c9.052,3.718,16.389,7.508,21.038,10.078c0.471,0.26,0.984,0.54,1.397,0.773c2.914-4.442,4.836-7.784,4.836-7.784
	s-0.136-1.476-0.78-3.904c-0.227-0.859-0.532-1.851-0.903-2.925C988.688,807.908,980.653,797.626,968.913,787.847z"/>
<path style="fill:#A15C40;" d="M963.476,814.069c-6.146-3.384-14.468-7.793-23.032-11.827c-0.007,0.129,0.018,0.251,0.007,0.38
	c-0.767,9.304-8.931,16.225-18.235,15.458c-9.304-0.767-16.225-8.931-15.458-18.235c0.25-3.024,1.341-5.75,2.938-8.089
	c-1.766-0.085-3.283,0.064-4.434,0.541c-8.291,3.435-10.75,6.367-11.462,8.012c0.405-2.804,0.618-8.937-4.951-10.301
	c-2.897-0.71-5.611-0.203-7.901,0.711c-4.353,21.641,7.557,46.011,30.322,52.123c0.615,0.162,1.236,0.307,1.86,0.443
	c0.339,0.065,0.679,0.112,1.019,0.169c0.012,0.003,0.026,0.003,0.039,0.006c5.702,0.266,11.448,0.247,17.144-0.03
	c0.711-0.127,1.401-0.339,2.105-0.496C947.361,839.047,958.898,827.767,963.476,814.069z"/>
<path style="fill:#5E3124;" d="M888.849,790.007c5.568,1.365,5.356,7.497,4.951,10.301c0.712-1.645,3.172-4.577,11.462-8.012
	c1.151-0.477,2.668-0.626,4.434-0.541c3.317-4.857,9.017-7.887,15.298-7.37c9.175,0.756,15.998,8.713,15.451,17.856
	c8.564,4.034,16.886,8.443,23.032,11.827c1.216-3.639,1.986-7.431,2.128-11.313c0.573-7.302-0.707-14.052-3.286-20.043
	c-7.33-5.275-15.809-9.931-25.205-13.045c3.576,1.795,6.169,4.023,5.506,6.632c-1.848,7.279-11.852,0.096-20.418,1.156
	c-8.565,1.06-9.729,6.616-16.22,6.081c-6.49-0.535-9.846,5.9-14.06,1.314c-3.234-3.519,2.864-14.929,15.733-18.965
	c-4.661,0.226-9.067,0.787-13.281,1.546c-7.349,6.411-11.683,14.611-13.428,23.286C883.237,789.804,885.952,789.297,888.849,790.007
	z"/>
<path style="fill:#2B0D11;" d="M832.925,780.203c0,0-2.626,2.561-5.829,5.891c-3.76,3.908-8.327,8.891-10.556,12.265
	c0,0,3.969-0.649,22.782,16.636c0,0,5.672,4.676,10.079,8.336c28.852,27.975,81.389,24.824,118.84,15.184
	c-11.024,2.358-23.412,4.201-36.082,4.869c-0.179,0.009-0.356,0.024-0.534,0.033c0.611-0.14,1.209-0.315,1.812-0.483
	c-0.704,0.157-1.394,0.369-2.105,0.496c-5.695,0.277-11.441,0.297-17.144,0.03c-0.013-0.003-0.026-0.003-0.039-0.006
	c0.012,0.002,0.023,0.004,0.035,0.006c-0.131-0.006-0.261-0.011-0.392-0.017c-24.602-1.211-48.313-8.07-63.284-25.482
	c-2.907-3.381-5.478-7.163-7.668-11.375c-0.768-3.76-1.144-8.007-0.821-12.786c0,0,15.921-17.033,44.06-24.547
	c-9.258,11.568-13.156,27.228-8.878,41.822c1.856,6.335,5.229,12.471,10.408,17.977c6.831,7.582,15.431,12.115,24.47,14.058
	c-0.282-0.069-0.531-0.194-0.809-0.268c-22.765-6.112-34.675-30.482-30.322-52.123c1.745-8.674,6.079-16.874,13.428-23.286
	c4.213-0.759,8.62-1.32,13.281-1.546c3.902-1.224,8.401-1.798,13.483-1.233c0,0,9.579,1.805,15.975,5.014
	c9.395,3.114,17.875,7.77,25.205,13.045c2.578,5.991,3.859,12.741,3.286,20.043c-0.142,3.882-0.912,7.674-2.128,11.313
	c-4.578,13.698-16.115,24.978-30.039,28.865c1.177-0.262,2.363-0.484,3.517-0.828c12.877-3.838,24.121-12.722,29.623-25.578
	c1.749-4.087,2.943-8.557,3.394-13.411c0.613-5.199,0.173-10.343-1.059-15.269c11.74,9.779,19.775,20.061,23.253,24.919
	c1.272,1.778,2.007,2.906,2.007,2.906s-7.619-29.534-32.829-50.081c12.173,5.202,26.282,12.624,40.905,23.281
	c0,0-36.843-40.773-87.33-41.794c-2.608-0.087-5.792-0.056-9.482,0.251c-0.008,0-0.016,0-0.024,0l0.002,0.001
	c-0.212,0.017-0.44,0.045-0.656,0.065c-8.218,0.745-18.726,2.839-30.411,7.923C847.057,767.192,851.904,766.373,832.925,780.203z"/>
<path style="fill:#2B0D11;" d="M924.993,784.386c-6.281-0.517-11.981,2.513-15.298,7.37c-1.596,2.338-2.688,5.065-2.938,8.089
	c-0.767,9.304,6.154,17.468,15.458,18.235c9.305,0.767,17.469-6.154,18.235-15.458c0.01-0.129-0.014-0.251-0.007-0.38
	C940.991,793.099,934.168,785.142,924.993,784.386z"/>
<path style="fill:#BE7E67;" d="M946.208,811.92c-3.657-2.774-6.479-0.534-6.479-0.534c-2.399,0.838-2.958,7.893-2.958,7.893
	l-3.961-1.222c-5.072-0.595-11.481,8.591-12.3,8.876c-0.818,0.286-1.654-2.432-3.396-4.872c-1.741-2.44-7.604-4.159-14.035-3.276
	c-6.431,0.883-5.049,9.827-3.262,13.86c1.786,4.033,5.485,4.161,10.616,4.054c5.131-0.107,4.806-2.606,8.388-3.194
	c3.581-0.588,5.807,4.541,9.214,6.058c3.407,1.517,5.291,0.083,8.479-2.168c3.188-2.251,1.675-3.176,6.104-3.341
	c4.429-0.165,8.549-3.004,12.3-7.816C958.67,821.425,949.865,814.694,946.208,811.92z"/>
<path style="fill:#DBECDB;" d="M891.923,784.851c4.214,4.586,7.57-1.848,14.06-1.314c6.491,0.535,7.655-5.021,16.22-6.081
	c8.565-1.06,18.57,6.123,20.418-1.156c0.663-2.61-1.931-4.838-5.506-6.632c-6.396-3.21-15.975-5.014-15.975-5.014
	c-5.082-0.564-9.581,0.009-13.483,1.233C894.787,769.923,888.689,781.332,891.923,784.851z"/>
<path style="fill:#8E5138;" d="M966.654,736.907c-29.669-9.969-64.797-9.595-92.715,5.325c-13.102,6.862-25.33,15.072-36.848,24.141
	c12.693-7.302,25.568-14.228,38.761-20.16c25.92-12.065,56.499-12.19,83.944-5.974c8.451,1.974,14.965,7.078,21.061,12.849
	c4.25,4.024,8.304,8.363,12.639,12.235c-1.836-2.641-3.683-5.395-5.61-8.129C982.145,749.048,975.69,741.089,966.654,736.907z"/>
<path style="fill:#492A2E;" d="M951.229,767.259c3.427-0.593,1.985-2.517,1.985-2.517c-5.494-6.675-25.369-9.202-25.369-9.202
	c-2.79,0.081,5.092,7.175,8.331,8.865C939.414,766.094,947.803,767.851,951.229,767.259z"/>
<path style="fill:#9B6C3D;" d="M934.939,719.768c35.565,10.073,78.61,16.486,78.61,16.486s-2.044-11.675-6.985-23.291
	c-3.638-8.551-8.84-17.071-15.994-20.873c-16.874-8.965-132.971-23.125-150.45-20.754c-17.479,2.37-26.893,12.912-26.893,12.912
	c1.027-0.017,2.253,0.076,3.53,0.198C839.721,686.637,901.248,710.225,934.939,719.768z"/>
<path style="fill:#9B6C3D;" d="M1330.512,688.595c-2.776-2.639-11.567-9.951-25.852-11.887
	c-17.479-2.37-133.576,11.79-150.45,20.754c-16.873,8.964-22.979,44.163-22.979,44.163s1.403-0.211,3.813-0.596
	c11.227-1.796,45.517-7.598,74.797-15.891c9.709-2.749,21.76-6.68,34.51-10.919c33.325-11.078,71.485-24.278,86.293-24.549
	c0.282-0.005,0.645-0.055,0.91-0.051C1331.554,689.62,1331.133,689.185,1330.512,688.595z"/>
<path style="fill:#8E5138;" d="M1101.056,1064.828c-39.095-0.443-80.184-5.106-118.851-0.2c-2.248,0.285-4.482,0.627-6.713,0.979
	c-3.423-0.916-9.574-2.489-10.919-2.319c-1.881,0.237-2.368,7.594-0.947,8.533c1.018,0.673,7.817-2.461,11.62-4.304
	c0.514,0.008,1.022,0.016,1.542,0.024h0c30.611,0.478,69.235,0.836,97.179-0.727c34.037-1.556,67.872,3.547,101.918,1.013h0
	c0.219-0.016,0.439-0.031,0.659-0.048c2.929,1.439,8.81,4.209,10.393,4.033c2.131-0.237,1.421-8.051,0-9.472
	c-1.156-1.156-8.34,2.567-11.013,4.013c-2.246-0.337-4.506-0.641-6.791-0.893
	C1147.024,1063.011,1123.307,1064.225,1101.056,1064.828z"/>
<path style="fill:#EAA9A0;" d="M1015.7,1075.117c0,0-13.261,2.031-7.578,7.714c5.683,5.684,40.183,19.418,45.667,13.261
	C1059.272,1089.936,1021.019,1073.646,1015.7,1075.117z"/>
<path style="fill:#9B6C3D;" d="M752.863,624.479c-8.525-9.473-34.1-51.151-34.1-51.151l15.31,8.497v0l38.035,21.11l0.002,0.002
	l9.799,5.439c0,0-37.571-29.365-61.253-66.307c-23.681-36.942-12.314-53.327-12.314-53.327s-1.067-5.462-1.465-9.285l0.573-0.22
	c-0.063,0.021-19.616,6.662-17.844,27.468c1.775,20.839,4.617,42.427,6.511,51.524v0
	C714.206,588.601,761.388,633.952,752.863,624.479z"/>
<path style="fill:#9B6C3D;" d="M768.607,709.035c-0.304-2.997-48.758-24.778-63.575-31.371l0.707,3.65
	c0,0-4.415,12.661-4.955,28.355c4.747,0.849,10.682,2.099,17.979,3.851C742.444,719.204,768.966,712.573,768.607,709.035z"/>
<path style="fill:#9B6C3D;" d="M731.897,514.898L731.897,514.898c1.479,1.451,3.006,2.899,4.569,4.339
	c0.079,0.073,0.16,0.146,0.24,0.219c1.512,1.389,3.055,2.771,4.624,4.14c0.044,0.038,0.088,0.077,0.133,0.116
	c3.251,2.834,6.599,5.613,9.955,8.298c0.071,0.057,0.143,0.115,0.214,0.172c3.339,2.669,6.68,5.24,9.937,7.679
	c0.083,0.062,0.166,0.124,0.248,0.186c3.259,2.437,6.429,4.737,9.419,6.859c0.046,0.033,0.092,0.066,0.139,0.098
	c2.988,2.12,5.795,4.063,8.327,5.785c0.067,0.046,0.132,0.089,0.198,0.135c1.194,0.812,2.327,1.575,3.388,2.283
	c0.058,0.039,0.121,0.081,0.179,0.12c1.089,0.726,2.1,1.395,3.023,2.001c0.062,0.041,0.118,0.077,0.18,0.118
	c0.837,0.549,1.596,1.042,2.274,1.481c0.094,0.061,0.195,0.126,0.284,0.184c0.689,0.445,1.303,0.839,1.793,1.151
	c0.007,0.003,0.01,0.007,0.017,0.01c0.475,0.302,0.827,0.525,1.096,0.693c0.074,0.046,0.16,0.1,0.217,0.136
	c0.141,0.088,0.297,0.186,0.297,0.186s-0.191-0.141-0.469-0.348c-0.064-0.048-0.076-0.058-0.157-0.119
	c-0.723-0.544-2.117-1.62-4.131-3.266c-0.096-0.078-0.187-0.154-0.285-0.234c-1.006-0.826-2.128-1.763-3.411-2.86
	c-0.022-0.018-0.036-0.03-0.058-0.049c0,0,0.001,0.001,0.002,0.001c-9.39-8.041-25.865-23.385-45.99-47.39
	c-30.199-36.021-17.49-77.919-13.336-71.461c0.037,0.056,0.073,0.114,0.109,0.178c0.173,0.315,0.334,0.687,0.469,1.188
	c3.29,12.229,36.524,51.817,36.524,51.817c-0.365-0.718-0.674-1.412-1.028-2.125h0.001c-41.22-83.274,2.396-131.747,2.396-131.747
	c-1.981,12.248-1.685,24.488,0.171,36.414c0.569,3.659,1.297,7.285,2.144,10.874c0.056,0.238,0.103,0.478,0.161,0.716
	c0.363,1.502,0.762,2.992,1.167,4.48c0.148,0.542,0.291,1.087,0.444,1.626c0.409,1.437,0.84,2.866,1.285,4.289
	c0.172,0.547,0.345,1.092,0.522,1.637c0.467,1.441,0.947,2.876,1.45,4.299c0.153,0.435,0.314,0.865,0.471,1.298
	c2.448,6.771,5.262,13.328,8.305,19.599c0.129,0.266,0.255,0.536,0.386,0.802c0.692,1.412,1.398,2.805,2.11,4.187
	c0.185,0.359,0.37,0.717,0.556,1.074c0.712,1.364,1.431,2.715,2.159,4.048c0.16,0.292,0.321,0.58,0.481,0.871
	c3.337,6.05,6.81,11.758,10.263,17.043c0.079,0.12,0.157,0.244,0.236,0.364c0.789,1.204,1.576,2.379,2.36,3.538
	c0.172,0.253,0.343,0.507,0.514,0.758c0.761,1.117,1.519,2.214,2.271,3.287c0.167,0.238,0.334,0.473,0.5,0.709
	c0.771,1.093,1.539,2.171,2.297,3.214c0.04,0.056,0.08,0.109,0.121,0.165c2.506,3.448,4.921,6.616,7.179,9.477
	c0.071,0.09,0.145,0.185,0.215,0.274c0.643,0.813,1.266,1.588,1.881,2.349c0.196,0.242,0.394,0.488,0.586,0.725
	c0.56,0.689,1.106,1.353,1.637,1.996c0.226,0.272,0.448,0.538,0.668,0.803c0.495,0.592,0.983,1.175,1.449,1.725
	c0.219,0.258,0.425,0.497,0.637,0.745c1.495,1.75,2.818,3.254,3.937,4.501c0.183,0.203,0.38,0.425,0.551,0.614
	c0.283,0.312,0.535,0.588,0.786,0.862c0.174,0.189,0.354,0.387,0.512,0.558c0.209,0.227,0.401,0.433,0.58,0.626
	c0.175,0.188,0.347,0.371,0.493,0.526c0.11,0.117,0.224,0.238,0.317,0.336c0.157,0.165,0.29,0.304,0.394,0.413
	c0.048,0.05,0.121,0.126,0.157,0.164c0.083,0.085,0.163,0.168,0.163,0.168c2.328,1.441,4.485,3.09,6.504,4.862
	c4.264-8.524,10.638-15.124,20.018-17.176c30.312-6.63,109.88,17.051,129.772,21.787c18.593,4.427,98.783,32.019,124.089,33.283
	v-10.55c0,0,5.683-66.306,53.045-90.935c0,0-27.47,33.154-26.523,45.468c0,0,26.066-40.732,59.448-45.468l33.281,14.209
	c0,0-31.214,6.067-45.395,26.241c0,0,30.441-25.294,52.65-13.927c22.209,11.367,24.227,51.152,24.227,51.152l-0.729,8.525
	c1.554,0.947,43.233,86.199,95.33,101.355c0,0,1.738,58.729,10.815,83.358c3.644,9.887,5.048,21.601,5.324,33.339
	c0-0.004,0-0.006,0-0.01c16.891,4.937,47.598-34.604,63.922-60.461c-0.785,10.114-2.649,19.324-4.712,27.01l0,0c0,0,0,0.001,0,0.002
	c-2.774,10.334-5.888,17.837-7.272,20.931c-0.009,0.021-0.015,0.033-0.023,0.053c-0.208,0.463-0.374,0.827-0.491,1.078
	c-0.004,0.007-0.01,0.022-0.014,0.028c1.448-3.073,10.588-23.347,12.545-49.441c2.842-37.89-0.916-28.417,0-60.624
	c0.831-29.202,13.645-39.697,11.8-73.161c0.92-0.285,1.823-0.551,2.775-0.868c29.394-9.999,52.302-32.892,68.67-58.413
	c5.716-8.825,12.163-21.784,16.638-31.453c-8.802,14.565-19.495,30.233-31.576,42.108c-13.687,13.841-30.842,26.244-49.675,32.119
	c14.351-11.266,43.771-40.575,48.043-93.978c0,0-17.876,54.941-51.564,61.572c0,0,45.881-34.101,51.564-94.724
	c0,0-15.253,13.836-33.974,23.381c1.346-10.923,2.012-31.429,2.715-50.971c0.989-27.47-25.364-30.192-52.421-52.925
	c-27.057-22.733-20.703-42.746-22.679-56.955c-1.975-14.208-3.618-30.756-29.364-45.467c-19.892-11.367-37.71-13.262-51.845-11.367
	c0,0,15.182-8.526,8.102-33.154c0,0-26.026,34.1-51.601,36.942c0,0-9.473-23.681-26.523-26.523
	c-17.051-2.842-34.235-5.986-45.859-13.564c-11.624-7.578-46.958-13.262-69.549,2.841c0,0,5.54-22.734,0-40.731
	c0,0-11.224,30.311-30.169,36.942c0,0,19.781-41.678,14.627-73.885c0,0-41.181,60.623-72.898,73.885c0,0-10.444-1.15-31.717-8.525
	c-50.131-17.379-115.559,31.877-115.559,31.877s-37.315,3.789-54.366,26.523c-17.051,22.734-22.792,29.378-22.792,29.378
	s-26.092,10.42-36.138,27.47s-9.849,52.07-9.849,52.07s-21.464,5.382-29.042,22.433c-7.578,17.051-7.404,44.204-17.823,66.938
	c0,0-10.621,29.852-11.964,45.332c0.839,1.14,2.376,4.734,5.034,12.484C715.385,496.771,722.726,505.895,731.897,514.898z"/>
<path style="fill:#9B6C3D;" d="M773.974,832.526c0.089-1.061,0.182-2.153,0.283-3.297c-0.001-0.002-1.323-1.613-3.446-4.234
	c1.081,11.621,2.06,22.388,2.06,22.388S773.219,841.508,773.974,832.526z"/>
<path style="fill:#875A31;" d="M1106.184,549.777c0.87,0.043,1.676,0.056,2.415,0.036c0.013,0,0.028,0.001,0.04,0
	c0.747-0.02,1.424-0.075,2.019-0.167c0,0,14.47-48.331,56.148-74.369c0,0-21.862,26.06-28.455,44.058
	c0,0,33.705-41.777,53.802-52.12c0,0-32.468,34.122-40.748,61.593c0,0,29.609-43.189,59.921-40.065
	c30.311,3.123,46.149,25.856,44.861,45.749l0.729-8.525c0,0-2.018-39.785-24.227-51.152c-22.21-11.367-52.65,13.927-52.65,13.927
	c14.181-20.174,45.395-26.241,45.395-26.241l-33.281-14.209c-33.382,4.736-59.448,45.468-59.448,45.468
	c-0.947-12.314,26.523-45.468,26.523-45.468c-47.362,24.629-53.045,90.935-53.045,90.935V549.777L1106.184,549.777L1106.184,549.777
	z"/>
<path style="fill:#875A31;" d="M1225.436,370.619c0,0-53.744-19.892-86.972,0c-33.227,19.892-49.331,52.099-49.331,52.099
	s14.752-41.363,39.582-60.939c0,0-40.529,4.104-59.474,55.255c-18.945,51.151,19.892,111.774,19.892,111.774
	S1098.405,402.825,1225.436,370.619z"/>
<path style="fill:#875A31;" d="M1064.034,375.355c0,0-37.41,42.626-30.783,89.04c6.627,46.415,44.819,68.202,44.819,68.202
	S1033.251,464.395,1064.034,375.355z"/>
<path style="fill:#875A31;" d="M1379.378,647.213c26.911-7.294,39.476-46.414,39.476-46.414
	c-24.486,28.566-60.704,34.101-60.704,34.101c-3.789,8.525,6.65,24.628,6.65,24.628c54.96-4.737,66.812-54.94,66.812-54.94
	C1410.351,640.583,1379.378,647.213,1379.378,647.213z"/>
<path style="fill:#875A31;" d="M1426.352,669.947l-46.974,19.892c8.913-4.736,44.132-39.784,44.132-39.784
	c-7.957,8.528-58.71,35.995-58.71,35.995c-6.611,18.945,9.51,55.575,9.51,55.575c15.213-4.102,56.778-44.391,44.544-41.367
	c-6.599,1.631-16.002,6.732-23.284,11.091C1411.947,697.3,1426.352,669.947,1426.352,669.947z"/>
<path style="fill:#875A31;" d="M1365.454,792.772c0.007-0.065,0.013-0.126,0.02-0.19c16.929-6.831,43.219-44.622,61.394-73.499
	c2.063-7.686,3.927-16.896,4.712-27.01c-16.324,25.857-47.031,65.397-63.922,60.461c0,0.003,0,0.006,0,0.01
	C1367.999,767.073,1366.597,781.588,1365.454,792.772z"/>
<path style="fill:#875A31;" d="M1276.687,538.281c0,0,65.397,130.125,154.893,11.544
	C1431.58,549.824,1348.678,614.06,1276.687,538.281z"/>
<path style="fill:#875A31;" d="M1331.444,488.742c-77.491-40.45-96.846-63.184-96.846-63.184s11.839,38.963,22.32,56.835
	c0,0,69.147,147.77,202.174,38.837c0,0-63.199,41.003-127.538,0.61c0,0,94.798,33.491,148.79-67.864
	C1480.344,453.976,1408.935,529.192,1331.444,488.742z"/>
<path style="fill:#875A31;" d="M1245.75,386.722c0,0,25.253,23.681,46.093,31.259c0,0-46.979-13.554-66.407-27.47
	c0,0,13.011,19.765,24.225,29.107c0,0,80.109,77.932,181.919,34.358c0,0-71.075,7.578-122.93-17.997
	c0,0,95.915,13.261,138.541-37.89C1447.191,398.089,1317.116,425.559,1245.75,386.722z"/>
<path style="fill:#875A31;" d="M1194.155,328.94c0,0,155.299,29.364,185.223-60.624
	C1379.378,268.317,1323.804,318.521,1194.155,328.94z"/>
<path style="fill:#875A31;" d="M1231.089,337.466c144.797,52.098,148.289-29.364,148.289-29.364
	C1335.246,362.093,1231.089,337.466,1231.089,337.466z"/>
<path style="fill:#875A31;" d="M1153.812,308.101c68.883-5.684,117.652,10.42,154.838-82.41c0,0-46.941,56.835-103.39,53.993
	c-56.45-2.842-130.335,12.077-117.073,75.187C1088.187,354.87,1084.93,313.784,1153.812,308.101z"/>
<path style="fill:#875A31;" d="M1073.993,344.096c0,0,1.308-59.676,70.743-82.41c69.435-22.734,96.994-35.455,104.926-44.521
	c0,0-57.741,13.262-103.924,17.998c-46.184,4.736-49.944,7.578-71.744,45.468c0,0-6.645-51.151,38.822-63.466
	c45.468-12.314,94.783-15.156,94.783-15.156s-52.157-22.733-90.994-4.736c-14.511,6.725-29.279,18.213-40.165,33.965
	c-5.501,11.284-10.434,23.012-14.907,34.886C1057.029,287.999,1059.586,314.163,1073.993,344.096z"/>
<path style="fill:#875A31;" d="M965.743,395.855c0,0,11.841,116.709,89.525,132.953c0,0-98.369-77.674,4.218-298.38
	c0,0-59.392,48.309-73.6,135.455c0,0-12.314-90.935,82.41-171.451C1068.295,194.432,942.759,236.379,965.743,395.855z"/>
<path style="fill:#875A31;" d="M852.323,480.499c0,0-26.432-40.367-28.417-77.674c0,0,31.431,61.728,87.9,85.918
	c0,0-43.38-35.953-50.01-106.876c0,0,15.676,94.844,140.452,133.68c0,0-116.952-59.676-95.549-231.127
	c0,0-38.273,74.832-10.803,133.561c0,0-78.416-125.036,31.362-216.919c0,0-136.505,48.309-74.935,209.34
	c0,0-54.516-48.309-39.098-128.825C813.225,281.578,758.547,381.986,852.323,480.499z"/>
<path style="fill:#875A31;" d="M763.283,354.87c0,0-43.616,48.473-2.396,131.747c21.311,24.806,43.701,42.191,43.701,42.191
	c-30.826-41.387-39.166-100.07-41.143-137.575c0.003,0.018,0.006,0.034,0.009,0.052C761.599,379.358,761.302,367.118,763.283,354.87
	z"/>
<path style="fill:#875A31;" d="M738.148,507.021c20.125,24.005,36.601,39.35,45.99,47.39c9.693,6.009,13.239,6.875,13.239,6.875
	c-65.892-63.559-73.485-107.96-73.129-126.31c0.202,0.104,0.388,0.315,0.564,0.583C720.658,429.103,707.949,471,738.148,507.021z"/>
<path style="fill:#875A31;" d="M708.343,488.742c0,0-11.367,16.385,12.314,53.327c23.681,36.942,61.253,66.307,61.253,66.307
	l-9.799-5.439l19.59,15.859l-12.257-26.746l22.913,15.379c0,0-15.393-15.156-44.757-46.143
	c-29.365-30.987-25.703-46.388-25.703-46.388l0,0c-9.171-9.003-16.512-18.127-19.265-26.156c-2.658-7.75-4.195-11.344-5.034-12.484
	l-0.001,0c0,0.002,0,0.004,0,0.006c-0.087,1.008-0.132,1.948-0.134,2.822c0,0.046-0.008,0.103-0.008,0.149l-0.005,0.002l-0.573,0.22
	C707.276,483.28,708.343,488.742,708.343,488.742z"/>
<path style="fill:#875A31;" d="M779.444,726.781c8.583-4.736,9.627-14.213,0-23.118c-9.628-8.904-49.961-44.136-49.961-44.136
	l32.177,16.917c-23.313-21.058-42.381-51.339-47.577-59.948c-0.674-0.882-1.172-1.701-1.45-2.437c0,0,0.537,0.924,1.45,2.437
	c9.727,12.732,57.708,39.242,57.708,39.242l-17.032-25.576l17.032,4.737c-8.655-9.796-25.691-34.9-37.717-53.073l-15.31-8.497
	c0,0,25.576,41.678,34.1,51.151c8.525,9.473-38.657-35.879-56.745-66.249l-0.001,0c0,0-5.95,23.308-5.003,39.411
	c0.948,16.103,7.652,47.678,7.652,47.678l6.265,32.345l0,0c14.817,6.593,63.27,28.373,63.575,31.371
	c0.36,3.538-26.163,10.169-49.844,4.486c-7.297-1.752-13.232-3.002-17.979-3.851l0,0c0,0,0,0.001,0,0.002
	c-0.065,1.883-0.075,3.81-0.015,5.763c0,0.007,0.001,0.014,0.001,0.02c0.054,1.742,0.186,3.51,0.362,5.283
	c0.047,0.477,0.108,0.951,0.165,1.429c0.165,1.38,0.38,2.761,0.633,4.143c0.095,0.522,0.181,1.041,0.29,1.563
	c0.382,1.826,0.824,3.65,1.386,5.452c1.017,3.261,2.986,6.352,4.864,8.822C728.251,742.385,771.736,731.035,779.444,726.781z"/>
<path style="fill:#B58456;" d="M968.241,459.659c0,0-59.266-151.558,61.216-269.318c0,0-20.839-19.59-44.52-13.907
	s-54.783,47.394-67.649,105.143c0,0,4.493-43.573,15.824-73.885C933.112,207.693,859.662,314.732,968.241,459.659z"/>
<path style="fill:#B58456;" d="M1022.827,440.715c0,0,7.251-91.082,38.705-174.589c4.472-11.874,9.406-23.603,14.907-34.886
	c6.335-12.993,13.382-25.407,21.22-36.807C1097.659,194.432,999.146,281.578,1022.827,440.715z"/>
<path style="fill:#B58456;" d="M1248.359,375.839c-92.706,3.789-141.262,99.439-141.262,99.439
	C1141.198,440.209,1248.359,375.839,1248.359,375.839z"/>
<path style="fill:#B58456;" d="M1286.766,361.62c-82.132-33.624-100.479-17.524-100.479-17.524
	c31.109,1.699,46.195,19.261,86.253,37.771c113.495,52.441,146.313-23.562,146.313-23.562
	c-38.757,37.89-103.794,33.154-103.794,33.154c59.594,0.057,91.036-53.993,91.036-53.993S1355.71,389.845,1286.766,361.62z"/>
<path style="fill:#B58456;" d="M1308.65,462.501c127.949,84.62,176.431-35.532,176.431-35.532
	C1416.248,507,1308.65,462.501,1308.65,462.501z"/>
<path style="fill:#B58456;" d="M1221.748,308.101c90.303,16.103,157.63-52.73,157.63-52.73s-13.729,6.157-16.255,6.789
	c-2.526,0.632,1.342-2.368-2.447-8.683c-3.789-6.315-14.84-6.157-26.207-13.104c-11.367-6.946-9.788-14.682-9.788-14.682
	C1301.947,303.365,1218.882,307.59,1221.748,308.101z"/>
<path style="fill:#B58456;" d="M1253.322,259.792c50.519-10.735,55.328-53.677,55.328-53.677
	c-10.171,19.26-32.594,23.365-55.959,26.523c-23.365,3.158-92.198,35.479-92.198,35.479S1202.803,270.527,1253.322,259.792z"/>
<path style="fill:#B58456;" d="M832.925,492.688c0,0-74.378-97.378-24.174-224.34c0,0-35.995,17.967-36.943,75.748
	C770.861,401.878,805.948,469.829,832.925,492.688z"/>
<path style="fill:#B58456;" d="M879.96,216.219c0,0-41.076,4.724-55.106,44.52c-14.031,39.796,0.649,94.883,11.373,114.616
	C836.227,375.355,818.556,275.895,879.96,216.219z"/>
<path style="fill:#B58456;" d="M1268.025,542.069c37.751,78.621,81.794,81.463,81.794,81.463
	c63.658,1.894,81.794-62.246,81.794-62.246C1347.832,675.227,1268.025,542.069,1268.025,542.069z"/>
<path style="fill:#6D4626;" d="M750.969,764.429c9.473,21.081,16.331,24.401,17.638,37.423c0.077,0.762,0.16,1.604,0.247,2.49
	c0.028,0.283,0.057,0.591,0.086,0.885c0.062,0.637,0.125,1.285,0.191,1.968c0.032,0.334,0.065,0.681,0.099,1.026
	c0.065,0.676,0.131,1.363,0.199,2.074c0.039,0.411,0.078,0.824,0.119,1.245c0.071,0.746,0.143,1.508,0.216,2.279
	c0.028,0.293,0.055,0.583,0.083,0.879c0.002,0.026,0.005,0.052,0.008,0.078c0.087,0.919,0.175,1.851,0.263,2.793
	c0.024,0.26,0.049,0.515,0.073,0.776c0.051,0.552,0.103,1.108,0.156,1.664c0.155,1.661,0.311,3.331,0.464,4.986l0,0
	c2.123,2.621,3.445,4.232,3.446,4.234v0c0.103-1.17,0.214-2.393,0.329-3.64c0.032-0.347,0.065-0.701,0.098-1.052
	c0.089-0.949,0.182-1.918,0.277-2.904c0.038-0.394,0.076-0.784,0.116-1.183c0.111-1.122,0.227-2.268,0.347-3.43
	c0.025-0.247,0.049-0.486,0.075-0.735c0.142-1.362,0.291-2.752,0.445-4.157c0.045-0.407,0.091-0.817,0.137-1.227
	c0.12-1.077,0.244-2.163,0.372-3.259c0.052-0.45,0.105-0.898,0.158-1.351c0.141-1.185,0.286-2.379,0.435-3.578
	c0.039-0.319,0.077-0.635,0.118-0.954c0.188-1.497,0.384-3.001,0.586-4.511c0.046-0.348,0.096-0.696,0.143-1.044
	c0.162-1.189,0.327-2.379,0.497-3.568c0.065-0.459,0.132-0.917,0.199-1.377c0.17-1.163,0.344-2.323,0.522-3.481
	c0.059-0.381,0.116-0.762,0.175-1.142c0.234-1.494,0.474-2.98,0.722-4.454c0.053-0.316,0.109-0.627,0.163-0.942
	c0.201-1.173,0.406-2.338,0.616-3.493c0.083-0.454,0.166-0.904,0.25-1.355c0.2-1.071,0.404-2.129,0.612-3.178
	c0.079-0.4,0.157-0.802,0.238-1.199c0.283-1.392,0.572-2.764,0.87-4.105c0.043-0.192,0.088-0.376,0.131-0.567
	c0.258-1.146,0.523-2.27,0.792-3.37c0.1-0.406,0.201-0.803,0.302-1.202c0.229-0.909,0.464-1.798,0.702-2.668
	c0.102-0.374,0.204-0.751,0.307-1.118c0.335-1.186,0.676-2.345,1.027-3.446c6.802-21.332-1.352-71.797,8.001-112.935
	c3.671-16.148,10.038-30.859,21.069-41.806c0,0,13.556-18.198,10.714-31.833c-0.157-0.754-0.304-1.67-0.445-2.655
	c-0.038-0.268-0.075-0.551-0.111-0.835c-0.114-0.89-0.22-1.844-0.313-2.875c-0.019-0.212-0.042-0.4-0.06-0.617
	c-0.101-1.204-0.181-2.503-0.244-3.861c-0.021-0.426-0.033-0.87-0.049-1.309c-0.038-1.058-0.062-2.15-0.073-3.278
	c-0.005-0.471-0.015-0.93-0.014-1.412c0.002-1.47,0.03-2.984,0.086-4.537c0.02-0.552,0.054-1.119,0.081-1.679
	c0.055-1.131,0.127-2.272,0.215-3.43c0.049-0.647,0.096-1.291,0.156-1.945c0.147-1.596,0.32-3.206,0.537-4.826
	c0.079-0.587,0.181-1.176,0.27-1.765c0.176-1.167,0.369-2.33,0.586-3.495c0.132-0.708,0.268-1.416,0.416-2.121
	c0.287-1.367,0.607-2.724,0.957-4.069c0.185-0.708,0.386-1.407,0.589-2.106c0.356-1.224,0.738-2.432,1.155-3.619
	c0.228-0.651,0.469-1.293,0.716-1.931c0.443-1.145,0.924-2.259,1.431-3.352c0.209-0.452,0.397-0.923,0.618-1.365l0,0
	c-2.019-1.772-4.176-3.42-6.504-4.862c0,0-0.057-0.059-0.163-0.168c-0.036-0.038-0.109-0.113-0.157-0.164
	c-0.107-0.111-0.229-0.239-0.394-0.413c-0.093-0.097-0.207-0.219-0.317-0.336c-0.152-0.161-0.31-0.329-0.493-0.526
	c-0.18-0.193-0.372-0.399-0.58-0.626c-0.161-0.174-0.335-0.364-0.512-0.558c-0.251-0.274-0.503-0.55-0.786-0.862
	c-0.173-0.191-0.367-0.409-0.551-0.614c-1.12-1.247-2.442-2.751-3.937-4.501c-0.213-0.249-0.417-0.487-0.637-0.745
	c-0.466-0.55-0.954-1.133-1.449-1.725c-0.221-0.265-0.441-0.529-0.668-0.803c-0.532-0.643-1.078-1.307-1.637-1.996
	c-0.194-0.238-0.39-0.482-0.586-0.725c-0.615-0.761-1.238-1.537-1.881-2.349c-0.07-0.089-0.144-0.185-0.215-0.274
	c-2.258-2.861-4.673-6.029-7.179-9.477c-0.041-0.056-0.08-0.109-0.121-0.165c-0.757-1.043-1.525-2.121-2.297-3.214
	c-0.167-0.237-0.333-0.47-0.5-0.709c-0.753-1.073-1.51-2.169-2.271-3.287c-0.171-0.251-0.342-0.505-0.514-0.758
	c-0.784-1.159-1.571-2.334-2.36-3.538c-0.079-0.12-0.157-0.243-0.236-0.364c-3.452-5.285-6.926-10.993-10.263-17.043
	c-0.16-0.291-0.321-0.578-0.481-0.871c-0.728-1.332-1.447-2.684-2.159-4.048c-0.187-0.357-0.371-0.715-0.556-1.074
	c-0.712-1.382-1.418-2.775-2.11-4.187c-0.13-0.265-0.256-0.535-0.386-0.802c-3.043-6.271-5.858-12.827-8.305-19.599
	c-0.157-0.433-0.317-0.863-0.471-1.298c-0.502-1.423-0.982-2.858-1.45-4.299c-0.177-0.544-0.35-1.09-0.522-1.637
	c-0.446-1.422-0.877-2.851-1.285-4.289c-0.153-0.54-0.296-1.084-0.444-1.626c-0.406-1.488-0.805-2.978-1.167-4.48
	c-0.057-0.237-0.104-0.478-0.161-0.716c-0.847-3.59-1.575-7.215-2.144-10.874c-0.003-0.017-0.006-0.034-0.009-0.052
	c1.977,37.505,10.317,96.189,41.143,137.575c0,0-22.391-17.385-43.701-42.191h-0.001c0.353,0.713,0.663,1.407,1.028,2.125
	c0,0-33.234-39.588-36.524-51.817c-0.135-0.501-0.295-0.877-0.469-1.188c-0.035-0.064-0.072-0.121-0.109-0.178
	c-0.176-0.268-0.362-0.479-0.564-0.583c-0.356,18.35,7.238,62.751,73.129,126.31c0,0-3.546-0.866-13.239-6.875
	c0,0-0.001-0.001-0.002-0.001c0.022,0.019,0.036,0.03,0.058,0.049c1.275,1.091,2.408,2.035,3.411,2.86
	c0.098,0.08,0.189,0.156,0.285,0.234c1.985,1.623,3.391,2.709,4.131,3.266c0.08,0.061,0.092,0.07,0.157,0.119
	c0.258,0.192,0.469,0.348,0.469,0.348s-0.157-0.098-0.297-0.186c-0.073-0.045-0.108-0.068-0.217-0.136
	c-0.269-0.169-0.621-0.391-1.096-0.693c-0.007-0.004-0.01-0.006-0.017-0.01c-0.49-0.312-1.104-0.706-1.793-1.151
	c-0.093-0.06-0.187-0.121-0.284-0.184c-0.679-0.439-1.437-0.932-2.274-1.481c-0.063-0.042-0.116-0.076-0.18-0.118
	c-0.923-0.606-1.935-1.275-3.023-2.001c-0.059-0.039-0.12-0.08-0.179-0.12c-1.061-0.708-2.193-1.471-3.388-2.283
	c-0.068-0.046-0.131-0.088-0.198-0.135c-2.533-1.722-5.339-3.664-8.327-5.785c-0.046-0.033-0.092-0.065-0.139-0.098
	c-2.989-2.122-6.16-4.423-9.419-6.859c-0.083-0.062-0.165-0.124-0.248-0.186c-3.256-2.438-6.598-5.01-9.937-7.679
	c-0.071-0.057-0.143-0.114-0.214-0.172c-3.355-2.685-6.704-5.464-9.955-8.298c-0.045-0.039-0.088-0.078-0.133-0.116
	c-1.569-1.369-3.112-2.751-4.624-4.14c-0.08-0.073-0.161-0.146-0.24-0.219c-1.563-1.44-3.09-2.888-4.568-4.339h0l0,0
	c0,0-3.662,15.401,25.703,46.388c29.364,30.987,44.757,46.143,44.757,46.143l-22.913-15.379l12.257,26.746l-19.59-15.859
	l-0.002-0.002l-38.035-21.11v0c12.026,18.174,29.062,43.278,37.717,53.073l-17.032-4.737l17.032,25.576
	c0,0-47.981-26.509-57.708-39.242c5.196,8.609,24.264,38.889,47.577,59.948l-32.177-16.917c0,0,40.333,35.232,49.961,44.136
	c9.627,8.905,8.583,18.382,0,23.118c-7.707,4.254-51.192,15.604-70.973,15.364l0,0c0.002,0.003,0.004,0.005,0.006,0.007
	c2.342,3.079,4.538,5.168,4.538,5.168h0.001C713.023,747.319,741.498,743.352,750.969,764.429z"/>
<path style="fill:#6D4626;" d="M1419.572,740.068c0.009-0.02,0.014-0.032,0.023-0.053c1.394-3.131,4.512-10.649,7.272-20.931
	c0,0,0-0.001,0-0.002l0,0c-18.175,28.877-44.465,66.668-61.394,73.499c-0.006,0.065-0.013,0.126-0.02,0.19
	c-0.234,2.286-0.46,4.484-0.654,6.455c-1.386,14.077,2.384,44.079,4.573,59.596c0.834,5.907,1.445,9.782,1.445,9.782
	s0.6-1.385,1.635-3.801c1.192-2.78,2.969-6.947,5.171-12.165c1.223-2.901,2.582-6.138,4.025-9.596
	c4.055-9.721,8.831-21.339,13.613-33.354c2.942-7.391,5.874-14.91,8.639-22.218c5.854-15.474,10.923-29.943,13.578-39.984
	c0.573-2.167,1.043-4.144,1.375-5.864c0,0,0.073-0.151,0.164-0.344c0.006-0.012,0.004-0.008,0.01-0.022
	c0.015-0.033,0.022-0.047,0.039-0.085c0.003-0.007,0.01-0.022,0.014-0.028C1419.201,740.888,1419.364,740.535,1419.572,740.068z"/>
<path style="fill:#6D4626;" d="M1211.328,488.742c-30.312-3.124-59.921,40.065-59.921,40.065
	c8.28-27.47,40.748-61.593,40.748-61.593c-20.097,10.344-53.802,52.12-53.802,52.12c6.593-17.998,28.455-44.058,28.455-44.058
	c-41.678,26.038-56.148,74.369-56.148,74.369c18.259-2.841,91.898-21.786,83.496-16.103c-8.402,5.684-18.663,17.998-12.586,14.209
	c6.078-3.789,73.066-14.209,74.62-13.262C1257.477,514.599,1241.64,491.866,1211.328,488.742z"/>
</svg>
